<?xml version="1.0" standalone="no"?>
<!DOCTYPE svg PUBLIC "-//W3C//DTD SVG 1.1//EN" "http://www.w3.org/Graphics/SVG/1.1/DTD/svg11.dtd" >
<svg xmlns="http://www.w3.org/2000/svg">
<metadata>Generated by IcoMoon</metadata>
<defs>
<font id="Minebox-font-collection" horiz-adv-x="1024">
<font-face units-per-em="1024" ascent="960" descent="-64" />
<missing-glyph horiz-adv-x="1024" />
<glyph unicode="&#x20;" horiz-adv-x="512" d="" />
<glyph unicode="&#xe900;" glyph-name="alarm" d="M860.16 165.496c-58.573 43.981-92.16 111.206-92.16 184.371v153.6c0 128.666-86.733 237.466-204.8 270.95v36.25c0 42.342-34.458 76.8-76.8 76.8s-76.8-34.458-76.8-76.8v-36.25c-118.067-33.536-204.8-142.285-204.8-270.95v-153.6c0-73.165-33.587-140.339-92.16-184.371-8.806-6.605-12.39-18.125-8.909-28.57s13.261-17.51 24.269-17.51h232.96c-1.69-8.397-2.611-16.947-2.611-25.6 0-70.554 57.446-128 128-128s128 57.446 128 128c0 8.602-0.87 17.203-2.56 25.6h232.96c11.008 0 20.787 7.066 24.269 17.51s-0.102 21.965-8.909 28.57zM460.8 810.667c0 14.131 11.469 25.6 25.6 25.6s25.6-11.469 25.6-25.6v-26.778c-8.448 0.768-16.947 1.178-25.6 1.178s-17.152-0.41-25.6-1.178v26.778zM563.2 93.867c0-42.342-34.458-76.8-76.8-76.8s-76.8 34.458-76.8 76.8c0 8.755 1.536 17.408 4.403 25.6h144.794c2.867-8.192 4.403-16.845 4.403-25.6zM191.59 170.667c13.056 15.821 24.422 33.075 33.741 51.251 20.378 39.834 30.669 82.893 30.669 127.949v153.6c0 127.027 103.373 230.4 230.4 230.4s230.4-103.373 230.4-230.4v-153.6c0-45.056 10.342-88.115 30.669-127.949 9.318-18.227 20.685-35.43 33.741-51.251h-589.67z" />
<glyph unicode="&#xe901;" glyph-name="arrow-down" d="M504.525-52.258l307.2 307.2c9.984 9.984 9.984 26.214 0 36.198s-26.214 9.984-36.198 0l-263.475-263.475v834.202c0 14.131-11.469 25.6-25.6 25.6s-25.6-11.469-25.6-25.6v-834.202l-263.475 263.475c-9.984 9.984-26.214 9.984-36.198 0-5.018-5.018-7.475-11.571-7.475-18.125s2.509-13.107 7.475-18.125l307.2-307.2c9.984-9.984 26.214-9.984 36.198 0z" />
<glyph unicode="&#xe902;" glyph-name="arrow-left" d="M33.075 419.192l307.2 307.2c9.984 9.984 26.214 9.984 36.198 0s9.984-26.214 0-36.198l-263.475-263.475h834.202c14.131 0 25.6-11.469 25.6-25.6s-11.469-25.6-25.6-25.6h-834.202l263.475-263.475c9.984-9.984 9.984-26.214 0-36.198-5.018-5.018-11.571-7.475-18.125-7.475s-13.107 2.509-18.125 7.475l-307.2 307.2c-9.984 9.984-9.984 26.214 0 36.198z" />
<glyph unicode="&#xe903;" glyph-name="arrow-right" d="M990.925 419.192l-307.2 307.2c-9.984 9.984-26.214 9.984-36.198 0s-9.984-26.214 0-36.198l263.475-263.475h-834.202c-14.131 0-25.6-11.469-25.6-25.6s11.469-25.6 25.6-25.6h834.202l-263.475-263.475c-9.984-9.984-9.984-26.214 0-36.198 5.018-5.018 11.571-7.475 18.125-7.475s13.107 2.509 18.125 7.475l307.2 307.2c9.984 9.984 9.984 26.214 0 36.198z" />
<glyph unicode="&#xe904;" glyph-name="arrow-up" d="M468.275 905.592l-307.2-307.2c-9.984-9.984-9.984-26.214 0-36.198s26.214-9.984 36.198 0l263.475 263.475v-834.202c0-14.131 11.469-25.6 25.6-25.6s25.6 11.469 25.6 25.6v834.202l263.475-263.475c9.984-9.984 26.214-9.984 36.198 0 5.018 5.018 7.475 11.571 7.475 18.125s-2.509 13.107-7.475 18.125l-307.2 307.2c-9.984 9.984-26.214 9.984-36.198 0z" />
<glyph unicode="&#xe905;" glyph-name="bubble" d="M25.6-34.133c-11.52 0-21.606 7.68-24.678 18.79s1.638 22.886 11.52 28.774c86.579 51.917 122.47 127.437 135.219 162.765-94.106 72.038-147.661 171.725-147.661 276.070 0 52.685 13.21 103.731 39.322 151.757 24.883 45.773 60.416 86.784 105.523 121.907 91.494 71.168 212.787 110.387 341.555 110.387s250.061-39.219 341.555-110.387c45.107-35.072 80.64-76.083 105.523-121.907 26.112-47.974 39.322-99.021 39.322-151.757s-13.21-103.731-39.322-151.757c-24.883-45.773-60.416-86.784-105.523-121.907-91.494-71.168-212.787-110.387-341.555-110.387-52.89 0-104.806 6.605-154.419 19.712-21.965-14.643-63.027-40.602-112.077-65.024-76.186-37.888-141.517-57.088-194.253-57.088zM486.4 785.067c-239.974 0-435.2-149.299-435.2-332.8 0-92.928 51.456-182.374 141.107-245.35 8.806-6.195 12.8-17.203 10.035-27.597-5.99-22.323-26.368-83.61-80.896-142.746 66.662 23.347 138.445 63.846 191.437 100.301 6.298 4.352 14.182 5.632 21.555 3.533 48.538-13.875 99.686-20.941 151.962-20.941 239.974 0 435.2 149.299 435.2 332.8s-195.226 332.8-435.2 332.8z" />
<glyph unicode="&#xe906;" glyph-name="bug" d="M896 324.267h-77.568c-3.174 56.269-16.896 110.234-39.987 158.822 53.043 15.616 91.904 64.717 91.904 122.778 0 14.131-11.469 25.6-25.6 25.6s-25.6-11.469-25.6-25.6c0-38.963-29.184-71.27-66.867-76.134-8.909 13.619-18.688 26.675-29.235 39.014-5.53 6.451-11.213 12.595-17.050 18.534 7.168 22.477 10.752 45.875 10.752 69.786 0 127.027-103.373 230.4-230.4 230.4s-230.4-103.373-230.4-230.4c0-23.91 3.635-47.309 10.752-69.786-5.837-5.939-11.52-12.083-17.050-18.534-10.598-12.339-20.326-25.395-29.235-39.014-37.683 4.864-66.867 37.171-66.867 76.134 0 14.131-11.469 25.6-25.6 25.6s-25.6-11.469-25.6-25.6c0-58.061 38.861-107.162 91.904-122.778-23.091-48.589-36.762-102.554-39.987-158.822h-77.517c-14.131 0-25.6-11.469-25.6-25.6s11.469-25.6 25.6-25.6h77.568c3.174-56.269 16.896-110.234 39.987-158.822-53.043-15.616-91.904-64.717-91.904-122.778 0-14.131 11.469-25.6 25.6-25.6s25.6 11.469 25.6 25.6c0 38.963 29.184 71.27 66.867 76.134 8.909-13.619 18.688-26.675 29.235-39.014 62.976-73.472 146.995-113.92 236.646-113.92s173.722 40.448 236.646 113.92c10.598 12.339 20.326 25.395 29.235 39.014 37.683-4.864 66.867-37.171 66.867-76.134 0-14.131 11.469-25.6 25.6-25.6s25.6 11.469 25.6 25.6c0 58.061-38.861 107.162-91.904 122.778 23.091 48.589 36.762 102.554 39.987 158.822h77.517c14.131 0 25.6 11.469 25.6 25.6s-11.469 25.6-25.6 25.6zM486.4 836.267c98.816 0 179.2-80.384 179.2-179.2 0-11.008-0.973-21.811-2.918-32.461-52.326 37.786-112.896 58.061-176.282 58.061s-123.955-20.224-176.282-58.061c-1.946 10.65-2.918 21.453-2.918 32.461 0 98.816 80.384 179.2 179.2 179.2zM204.8 298.667c0 173.312 112.691 316.058 256 331.418v-662.835c-143.309 15.36-256 158.106-256 331.418zM512-32.751v662.835c143.309-15.36 256-158.106 256-331.418s-112.691-316.058-256-331.418z" />
<glyph unicode="&#xe907;" glyph-name="chevron-down" d="M0 631.467c0 6.554 2.509 13.107 7.475 18.125 9.984 9.984 26.214 9.984 36.198 0l442.675-442.675 442.675 442.675c9.984 9.984 26.214 9.984 36.198 0s9.984-26.214 0-36.198l-460.8-460.8c-9.984-9.984-26.214-9.984-36.198 0l-460.8 460.8c-5.018 5.018-7.475 11.571-7.475 18.125z" />
<glyph unicode="&#xe908;" glyph-name="chevron-left" d="M716.8-85.333c6.554 0 13.107 2.509 18.125 7.475 9.984 9.984 9.984 26.214 0 36.198l-442.675 442.675 442.675 442.675c9.984 9.984 9.984 26.214 0 36.198s-26.214 9.984-36.198 0l-460.8-460.8c-9.984-9.984-9.984-26.214 0-36.198l460.8-460.8c5.018-5.018 11.571-7.475 18.125-7.475z" />
<glyph unicode="&#xe909;" glyph-name="chevron-right" d="M256-85.333c-6.554 0-13.107 2.509-18.125 7.475-9.984 9.984-9.984 26.214 0 36.198l442.675 442.675-442.675 442.675c-9.984 9.984-9.984 26.214 0 36.198s26.214 9.984 36.198 0l460.8-460.8c9.984-9.984 9.984-26.214 0-36.198l-460.8-460.8c-5.018-5.018-11.571-7.475-18.125-7.475z" />
<glyph unicode="&#xe90a;" glyph-name="chevron-up" d="M0 170.667c0-6.554 2.509-13.107 7.475-18.125 9.984-9.984 26.214-9.984 36.198 0l442.675 442.675 442.675-442.675c9.984-9.984 26.214-9.984 36.198 0s9.984 26.214 0 36.198l-460.8 460.8c-9.984 9.984-26.214 9.984-36.198 0l-460.8-460.8c-5.018-5.018-7.475-11.571-7.475-18.125z" />
<glyph unicode="&#xe90b;" glyph-name="clock" d="M835.584 62.481c88.525 91.238 137.216 211.149 137.216 338.586 0 121.344-44.134 235.93-124.826 325.376l35.226 35.226 33.126-33.075c5.018-5.018 11.571-7.475 18.074-7.475s13.107 2.509 18.074 7.475c9.984 9.984 9.984 26.214 0 36.198l-102.4 102.4c-9.984 9.984-26.214 9.984-36.198 0s-9.984-26.214 0-36.198l33.126-33.075-35.226-35.226c-89.446 80.691-204.032 124.826-325.376 124.826s-235.93-44.134-325.376-124.826l-35.226 35.226 33.075 33.075c9.984 9.984 9.984 26.214 0 36.198s-26.214 9.984-36.198 0l-102.4-102.4c-9.984-9.984-9.984-26.214 0-36.198 5.018-5.018 11.571-7.475 18.125-7.475s13.107 2.509 18.125 7.475l33.075 33.075 35.226-35.226c-80.691-89.446-124.826-204.032-124.826-325.376 0-127.437 48.691-247.347 137.216-338.586l-104.141-104.141c-9.984-9.984-9.984-26.214 0-36.198 5.018-5.018 11.571-7.526 18.125-7.526s13.107 2.509 18.125 7.526l105.472 105.421c87.296-73.114 196.403-112.947 311.654-112.947s224.358 39.834 311.654 112.947l105.421-105.421c5.018-5.018 11.571-7.526 18.125-7.526s13.107 2.509 18.074 7.526c9.984 9.984 9.984 26.214 0 36.198l-104.141 104.141zM51.2 401.067c0 239.974 195.226 435.2 435.2 435.2s435.2-195.226 435.2-435.2c0-239.974-195.226-435.2-435.2-435.2s-435.2 195.226-435.2 435.2zM774.605 567.467c-7.066 12.237-22.733 16.435-34.97 9.37l-251.904-145.459-196.352 137.472c-11.571 8.090-27.546 5.274-35.635-6.298s-5.274-27.546 6.298-35.635l209.715-146.842c0.051-0.051 0.102-0.051 0.102-0.102 0.461-0.307 0.922-0.614 1.382-0.87 0.102-0.051 0.205-0.154 0.307-0.205 0.461-0.256 0.922-0.512 1.382-0.768 0.102-0.051 0.205-0.102 0.307-0.154 0.512-0.256 1.024-0.461 1.587-0.717 0.307-0.154 0.666-0.256 0.973-0.358 0.205-0.051 0.41-0.154 0.666-0.256 0.358-0.102 0.717-0.205 1.075-0.307 0.205-0.051 0.41-0.102 0.614-0.154 0.358-0.102 0.717-0.154 1.126-0.256 0.205-0.051 0.41-0.102 0.614-0.102 0.358-0.051 0.717-0.102 1.075-0.154 0.256-0.051 0.512-0.051 0.768-0.102 0.307-0.051 0.614-0.051 0.922-0.102 0.461-0.051 0.922-0.051 1.382-0.051 0.102 0 0.205 0 0.307 0 0 0 0 0 0 0s0 0 0.051 0c0.973 0 1.894 0.051 2.867 0.154 0.051 0 0.102 0 0.154 0 0.922 0.102 1.843 0.256 2.765 0.512 0.102 0 0.154 0.051 0.256 0.051 0.87 0.205 1.741 0.461 2.56 0.768 0.154 0.051 0.307 0.102 0.41 0.154 0.819 0.307 1.587 0.614 2.355 1.024 0.205 0.102 0.358 0.205 0.563 0.307 0.256 0.154 0.563 0.256 0.819 0.41l266.035 153.6c12.237 7.066 16.435 22.733 9.37 34.97z" />
<glyph unicode="&#xe90c;" glyph-name="code" d="M256 170.667c-6.554 0-13.107 2.509-18.125 7.475l-204.8 204.8c-9.984 9.984-9.984 26.214 0 36.198l204.8 204.8c9.984 9.984 26.214 9.984 36.198 0s9.984-26.214 0-36.198l-186.675-186.675 186.675-186.675c9.984-9.984 9.984-26.214 0-36.198-5.018-5.018-11.571-7.475-18.125-7.475zM768 170.667c-6.554 0-13.107 2.509-18.125 7.475-9.984 9.984-9.984 26.214 0 36.198l186.675 186.675-186.675 186.675c-9.984 9.984-9.984 26.214 0 36.198s26.214 9.984 36.198 0l204.8-204.8c9.984-9.984 9.984-26.214 0-36.198l-204.8-204.8c-5.018-5.018-11.571-7.475-18.125-7.475zM384 170.667c-4.659 0-9.318 1.28-13.568 3.891-11.981 7.475-15.616 23.296-8.141 35.277l256 409.6c7.475 11.981 23.296 15.616 35.277 8.141s15.616-23.296 8.141-35.277l-256-409.6c-4.864-7.782-13.21-12.032-21.709-12.032z" />
<glyph unicode="&#xe90d;" glyph-name="cog" d="M390.707-70.075c-2.099 0-4.25 0.256-6.4 0.819-45.978 11.827-90.163 30.054-131.277 54.221-11.93 7.014-16.128 22.221-9.523 34.355 8.141 14.95 12.442 31.846 12.442 48.998 0 56.474-45.926 102.4-102.4 102.4-17.101 0-34.048-4.301-48.998-12.442-12.134-6.605-27.341-2.406-34.355 9.523-24.166 41.165-42.394 85.299-54.221 131.277-3.328 13.005 3.942 26.368 16.64 30.618 41.677 14.029 69.734 53.043 69.734 97.024s-28.006 82.995-69.734 97.024c-12.698 4.301-19.968 17.613-16.64 30.618 11.827 45.978 30.054 90.163 54.221 131.277 7.014 11.93 22.221 16.128 34.355 9.523 14.899-8.141 31.846-12.442 48.998-12.442 56.474 0 102.4 45.926 102.4 102.4 0 17.101-4.301 34.048-12.442 48.998-6.605 12.134-2.406 27.341 9.523 34.355 41.165 24.166 85.299 42.394 131.277 54.221 13.005 3.328 26.368-3.942 30.618-16.64 14.029-41.677 53.043-69.734 97.024-69.734s82.995 28.006 97.024 69.734c4.301 12.698 17.664 19.968 30.618 16.64 45.978-11.827 90.163-30.054 131.277-54.221 11.93-7.014 16.128-22.221 9.523-34.355-8.141-14.95-12.442-31.846-12.442-48.998 0-56.474 45.926-102.4 102.4-102.4 17.101 0 34.048 4.301 48.998 12.442 12.134 6.605 27.341 2.406 34.355-9.523 24.166-41.165 42.394-85.299 54.221-131.277 3.328-13.005-3.942-26.368-16.64-30.618-41.677-14.029-69.734-53.043-69.734-97.024s28.006-82.995 69.734-97.024c12.698-4.301 19.968-17.613 16.64-30.618-11.827-45.978-30.054-90.163-54.221-131.277-7.014-11.93-22.221-16.128-34.355-9.523-14.95 8.141-31.846 12.442-48.998 12.442-56.474 0-102.4-45.926-102.4-102.4 0-17.101 4.301-34.048 12.442-48.998 6.605-12.134 2.406-27.341-9.523-34.355-41.165-24.166-85.299-42.394-131.277-54.221-13.005-3.328-26.368 3.942-30.618 16.64-14.029 41.677-53.043 69.734-97.024 69.734s-82.995-28.006-97.024-69.734c-3.584-10.598-13.517-17.459-24.269-17.459zM512 68.267c57.702 0 109.67-32.154 135.936-82.022 26.624 8.243 52.531 18.893 77.312 31.846-5.53 16.077-8.397 33.075-8.397 50.176 0 84.685 68.915 153.6 153.6 153.6 17.101 0 34.099-2.867 50.176-8.397 12.954 24.781 23.654 50.637 31.846 77.312-49.869 26.214-82.022 78.182-82.022 135.936s32.154 109.67 82.022 135.936c-8.243 26.624-18.893 52.531-31.846 77.312-16.077-5.53-33.075-8.397-50.176-8.397-84.685 0-153.6 68.915-153.6 153.6 0 17.101 2.867 34.099 8.397 50.176-24.781 12.954-50.637 23.654-77.312 31.846-26.214-49.869-78.182-82.022-135.936-82.022s-109.67 32.154-135.936 82.022c-26.624-8.192-52.531-18.893-77.312-31.846 5.53-16.077 8.397-33.075 8.397-50.176 0-84.685-68.915-153.6-153.6-153.6-17.101 0-34.099 2.867-50.176 8.397-12.954-24.781-23.654-50.637-31.846-77.312 49.869-26.214 82.022-78.182 82.022-135.936s-32.154-109.67-82.022-135.936c8.192-26.624 18.893-52.531 31.846-77.312 16.077 5.53 33.075 8.397 50.176 8.397 84.685 0 153.6-68.915 153.6-153.6 0-17.101-2.867-34.099-8.397-50.176 24.781-12.954 50.637-23.654 77.312-31.846 26.214 49.869 78.182 82.022 135.936 82.022zM512 273.067c-84.685 0-153.6 68.915-153.6 153.6s68.915 153.6 153.6 153.6 153.6-68.915 153.6-153.6-68.915-153.6-153.6-153.6zM512 529.067c-56.474 0-102.4-45.926-102.4-102.4s45.926-102.4 102.4-102.4c56.474 0 102.4 45.926 102.4 102.4s-45.926 102.4-102.4 102.4z" />
<glyph unicode="&#xe90e;" glyph-name="crop" d="M998.4 170.667h-153.6c-14.131 0-25.6 11.469-25.6 25.6s11.469 25.6 25.6 25.6h153.6c14.131 0 25.6-11.469 25.6-25.6s-11.469-25.6-25.6-25.6zM640 170.667h-358.4c-14.131 0-25.6 11.469-25.6 25.6v358.4c0 14.131 11.469 25.6 25.6 25.6s25.6-11.469 25.6-25.6v-332.8h332.8c14.131 0 25.6-11.469 25.6-25.6s-11.469-25.6-25.6-25.6zM281.6 733.867c-14.131 0-25.6 11.469-25.6 25.6v153.6c0 14.131 11.469 25.6 25.6 25.6s25.6-11.469 25.6-25.6v-153.6c0-14.131-11.469-25.6-25.6-25.6zM742.4-85.333c-14.131 0-25.6 11.469-25.6 25.6v691.2h-691.2c-14.131 0-25.6 11.469-25.6 25.6s11.469 25.6 25.6 25.6h716.8c14.131 0 25.6-11.469 25.6-25.6v-716.8c0-14.131-11.469-25.6-25.6-25.6z" />
<glyph unicode="&#xe90f;" glyph-name="cross" d="M548.198 401.067l289.075 289.075c9.984 9.984 9.984 26.214 0 36.198s-26.214 9.984-36.198 0l-289.075-289.075-289.075 289.075c-9.984 9.984-26.214 9.984-36.198 0s-9.984-26.214 0-36.198l289.075-289.075-289.075-289.075c-9.984-9.984-9.984-26.214 0-36.198 5.018-5.018 11.571-7.475 18.125-7.475s13.107 2.509 18.125 7.475l289.075 289.075 289.075-289.075c5.018-5.018 11.571-7.475 18.125-7.475s13.107 2.509 18.125 7.475c9.984 9.984 9.984 26.214 0 36.198l-289.075 289.075z" />
<glyph unicode="&#xe910;" glyph-name="database" d="M925.030 856.286c-25.446 16.691-61.082 31.488-105.933 43.93-89.19 24.781-207.36 38.4-332.698 38.4s-243.507-13.67-332.698-38.4c-44.902-12.442-80.538-27.238-105.933-43.93-31.693-20.838-47.77-44.749-47.77-71.219v-614.4c0-26.47 16.077-50.432 47.77-71.219 25.446-16.691 61.082-31.488 105.933-43.93 89.19-24.781 207.36-38.4 332.698-38.4s243.507 13.67 332.698 38.451c44.902 12.442 80.538 27.238 105.933 43.93 31.693 20.787 47.77 44.749 47.77 71.219v614.4c0 26.47-16.077 50.432-47.77 71.219zM167.424 850.91c84.89 23.552 198.144 36.557 318.976 36.557s234.138-13.005 318.976-36.557c91.904-25.549 116.224-54.221 116.224-65.843s-24.269-40.294-116.224-65.843c-84.89-23.552-198.144-36.557-318.976-36.557s-234.138 13.005-318.976 36.557c-91.904 25.549-116.224 54.221-116.224 65.843s24.269 40.294 116.224 65.843zM805.376 104.824c-84.89-23.552-198.144-36.557-318.976-36.557s-234.138 13.005-318.976 36.557c-91.904 25.549-116.224 54.221-116.224 65.843v131.379c25.19-15.821 59.597-29.85 102.502-41.779 89.19-24.781 207.36-38.4 332.698-38.4s243.507 13.67 332.698 38.451c42.906 11.93 77.363 25.958 102.502 41.779v-131.379c0-11.622-24.269-40.294-116.224-65.843zM805.376 309.624c-84.89-23.552-198.144-36.557-318.976-36.557s-234.138 13.005-318.976 36.557c-91.904 25.549-116.224 54.221-116.224 65.843v131.379c25.19-15.821 59.597-29.85 102.502-41.779 89.19-24.781 207.36-38.4 332.698-38.4s243.507 13.67 332.698 38.4c42.906 11.93 77.363 25.958 102.502 41.779v-131.379c0-11.622-24.269-40.294-116.224-65.843zM805.376 514.424c-84.89-23.552-198.144-36.557-318.976-36.557s-234.138 13.005-318.976 36.557c-91.904 25.549-116.224 54.221-116.224 65.843v131.379c25.19-15.821 59.597-29.85 102.502-41.779 89.19-24.781 207.36-38.4 332.698-38.4s243.507 13.67 332.698 38.4c42.906 11.93 77.363 25.958 102.502 41.779v-131.379c0-11.622-24.269-40.294-116.224-65.843z" />
<glyph unicode="&#xe911;" glyph-name="diamond" d="M967.68 570.027l-153.6 204.8c-3.942 5.274-9.779 8.806-16.282 9.882l-307.2 51.2c-2.765 0.461-5.632 0.461-8.397 0l-307.2-51.2c-6.502-1.075-12.339-4.608-16.282-9.882l-153.6-204.8c-7.322-9.779-6.707-23.398 1.434-32.461l460.8-512c4.864-5.376 11.776-8.499 19.046-8.499s14.182 3.072 19.046 8.499l460.8 512c8.192 9.114 8.806 22.682 1.434 32.461zM654.643 580.267l-168.243-462.694-168.243 462.694h336.486zM343.398 631.467l143.002 143.002 143.002-143.002h-286.003zM560.998 772.267l189.338-31.539-63.13-94.669-126.259 126.208zM285.594 646.059l-63.13 94.669 189.338 31.539-126.208-126.208zM239.104 623.48l-152.832-30.566 91.699 122.266 61.133-91.699zM265.062 576.427l152.269-418.765-342.63 380.723 190.362 38.093zM707.738 576.427l190.362-38.093-342.63-380.723 152.269 418.765zM733.696 623.48l61.133 91.699 91.699-122.266-152.832 30.566z" />
<glyph unicode="&#xe912;" glyph-name="drop" d="M512-85.333c-82.637 0-159.642 33.536-216.883 94.464-58.010 61.747-89.958 146.381-89.958 238.336 0 150.682 66.97 258.509 137.882 372.634 54.784 88.218 111.462 179.405 144.23 299.674 3.021 11.162 13.158 18.842 24.678 18.842s21.658-7.731 24.678-18.842c32.819-120.32 89.549-211.558 144.435-299.776 71.014-114.125 138.086-221.952 138.086-372.582 0-92.109-31.744-176.742-89.395-238.285-57.088-60.928-134.451-94.515-217.805-94.515zM512 830.481c-34.509-90.931-80.589-165.12-125.44-237.363-69.837-112.435-130.202-209.562-130.202-345.651 0-160.563 109.926-281.6 255.642-281.6 145.92 0 256 121.037 256 281.6 0 136.038-60.416 233.114-130.355 345.549-44.954 72.243-91.136 146.483-125.645 237.466z" />
<glyph unicode="&#xe913;" glyph-name="earth" d="M874.035 788.702c-96.717 96.717-225.28 149.965-362.035 149.965s-265.318-53.248-362.035-149.965c-96.717-96.717-149.965-225.28-149.965-362.035s53.248-265.318 149.965-362.035c96.717-96.717 225.28-149.965 362.035-149.965s265.318 53.248 362.035 149.965c96.717 96.717 149.965 225.28 149.965 362.035s-53.248 265.318-149.965 362.035zM941.926 592.504c-9.984 17.971-35.072 26.522-67.84 37.683-35.174 11.981-47.616 48.128-62.003 90.010-12.493 36.352-25.395 73.882-56.064 97.229 83.917-52.582 149.709-131.43 185.907-224.922zM798.259 416.888c3.891-34.662 7.885-70.554-35.174-118.886-11.622-13.056-18.432-31.232-25.651-50.483-16.691-44.595-32.461-86.733-99.635-87.347-1.894 2.253-7.219 10.752-11.981 37.53-4.352 24.678-6.861 56.627-9.574 90.368-4.096 51.814-8.755 110.592-21.555 159.334-16.384 62.31-43.878 99.123-84.019 112.538-17.51 5.837-35.43 8.704-54.682 8.704-14.234 0-27.136-1.536-38.502-2.867-8.858-1.024-17.254-2.048-24.32-2.048 0 0 0 0 0 0-11.981 0-25.549 0-42.291 38.298-24.013 55.040-6.298 143.258 64.205 189.798 38.656 25.498 65.331 36.403 89.19 36.403 19.046 0 39.578-6.605 68.71-22.17 34.406-18.33 61.389-20.685 81.050-20.685 7.782 0 14.848 0.41 21.658 0.819 5.734 0.358 11.11 0.666 16.128 0.666 11.264 0 20.378-1.485 31.078-8.755 19.712-13.466 29.952-43.213 40.755-74.65 16.384-47.718 34.97-101.786 93.952-121.856 7.936-2.714 21.555-7.322 31.232-11.366-8.346-8.602-22.272-21.043-35.942-33.229-8.806-7.885-18.79-16.794-29.85-26.88-31.949-29.133-28.16-63.232-24.781-93.286zM51.251 430.609c5.53-0.973 11.469-2.15 17.613-3.43 28.774-6.144 42.24-11.674 48.128-14.797-2.714-5.274-8.192-13.056-11.827-18.176-12.646-17.971-28.416-40.346-22.426-64.973 4.045-16.64 0.614-37.018-5.274-55.859-16.998 48.026-26.266 99.635-26.266 153.395 0 1.331 0.051 2.611 0.051 3.942zM512-34.133c-175.36 0-328.192 98.509-406.016 243.046 13.414 25.549 38.298 82.074 26.675 131.533 0.819 4.966 9.267 16.947 14.336 24.166 13.875 19.712 31.13 44.186 18.33 70.144-8.96 18.227-32.973 30.515-80.179 41.165-10.957 2.458-21.606 4.454-30.669 6.042 27.443 228.096 222.106 405.453 457.472 405.453 80.794 0 156.774-20.941 222.822-57.6-16.333 7.117-31.13 8.243-43.008 8.243-6.502 0-12.954-0.358-19.2-0.768-6.093-0.358-12.39-0.717-18.637-0.717-14.541 0-32.666 1.741-56.934 14.694-37.069 19.712-64.819 28.16-92.774 28.16-34.611 0-69.734-13.414-117.402-44.851-41.216-27.187-72.243-68.762-87.398-117.146-14.797-47.155-13.21-95.437 4.454-135.885 20.838-47.718 48.333-69.018 89.19-69.018 0 0 0 0 0 0 10.086 0 19.917 1.178 30.31 2.406 10.496 1.229 21.299 2.509 32.512 2.509 13.875 0 26.112-1.946 38.451-6.042 22.477-7.526 39.066-32.717 50.739-77.005s16.077-100.659 20.019-150.323c3.277-41.472 6.349-80.589 13.158-110.131 4.147-17.92 9.472-31.539 16.384-41.626 10.291-15.053 25.037-23.347 41.523-23.347 45.261 0 81.408 14.592 107.469 43.366 21.658 23.91 32.717 53.453 41.626 77.21 5.222 13.978 10.65 28.467 15.923 34.406 58.214 65.382 52.224 119.245 47.821 158.618-3.226 28.877-3.277 39.117 8.397 49.766 10.854 9.882 20.736 18.739 29.44 26.522 18.586 16.589 32 28.57 41.421 38.81 6.451 7.066 21.606 23.603 17.408 44.288-0.051 0.205-0.102 0.358-0.102 0.563 17.562-48.691 27.136-101.171 27.136-155.853 0-254.106-206.694-460.8-460.8-460.8z" />
<glyph unicode="&#xe914;" glyph-name="eye" d="M1017.446 418.168c-2.406 2.714-60.518 66.816-151.347 131.686-53.606 38.298-107.52 68.813-160.256 90.778-66.816 27.853-132.045 41.984-193.843 41.984s-127.027-14.131-193.843-41.984c-52.736-21.965-106.65-52.531-160.256-90.778-90.829-64.87-148.941-129.024-151.347-131.686-8.755-9.728-8.755-24.525 0-34.253 2.406-2.714 60.518-66.816 151.347-131.686 53.606-38.298 107.52-68.813 160.256-90.778 66.816-27.853 132.045-41.984 193.843-41.984s127.027 14.131 193.843 41.984c52.736 21.965 106.65 52.531 160.256 90.778 90.829 64.87 148.941 129.024 151.347 131.686 8.755 9.728 8.755 24.525 0 34.253zM643.789 609.041c46.438-39.066 73.011-95.898 73.011-156.774 0-112.947-91.853-204.8-204.8-204.8s-204.8 91.853-204.8 204.8c0 60.826 26.573 117.709 73.011 156.774 42.086 13.722 86.579 22.426 131.789 22.426s89.702-8.704 131.789-22.426zM835.43 293.24c-78.49-55.91-198.298-122.573-323.43-122.573s-244.941 66.662-323.43 122.573c-59.238 42.189-104.55 84.89-127.437 107.827 22.886 22.938 68.198 65.587 127.437 107.827 27.136 19.354 59.187 39.936 94.72 58.624-17.766-35.226-27.29-74.496-27.29-115.251 0-141.158 114.842-256 256-256s256 114.842 256 256c0 40.755-9.523 80.026-27.29 115.251 35.533-18.688 67.584-39.322 94.72-58.624 59.238-42.189 104.55-84.89 127.437-107.827-22.886-22.938-68.198-65.587-127.437-107.827z" />
<glyph unicode="&#xe915;" glyph-name="file-empty" d="M914.125 649.592l-230.4 230.4c-4.813 4.813-11.315 7.475-18.125 7.475h-486.4c-42.342 0-76.8-34.458-76.8-76.8v-819.2c0-42.342 34.458-76.8 76.8-76.8h665.6c42.342 0 76.8 34.458 76.8 76.8v640c0 6.81-2.714 13.312-7.475 18.125zM859.802 631.467h-168.602c-14.131 0-25.6 11.469-25.6 25.6v168.602l194.202-194.202zM870.4-8.533c0-14.131-11.469-25.6-25.6-25.6h-665.6c-14.131 0-25.6 11.469-25.6 25.6v819.2c0 14.131 11.469 25.6 25.6 25.6h435.2v-179.2c0-42.342 34.458-76.8 76.8-76.8h179.2v-588.8z" />
<glyph unicode="&#xe916;" glyph-name="frame-contract" d="M742.4 477.867h-102.4c-42.342 0-76.8 34.458-76.8 76.8v102.4c0 14.131 11.469 25.6 25.6 25.6s25.6-11.469 25.6-25.6v-102.4c0-14.131 11.469-25.6 25.6-25.6h102.4c14.131 0 25.6-11.469 25.6-25.6s-11.469-25.6-25.6-25.6zM332.8 477.867h-102.4c-14.131 0-25.6 11.469-25.6 25.6s11.469 25.6 25.6 25.6h102.4c14.131 0 25.6 11.469 25.6 25.6v102.4c0 14.131 11.469 25.6 25.6 25.6s25.6-11.469 25.6-25.6v-102.4c0-42.342-34.458-76.8-76.8-76.8zM588.8 119.467c-14.131 0-25.6 11.469-25.6 25.6v102.4c0 42.342 34.458 76.8 76.8 76.8h102.4c14.131 0 25.6-11.469 25.6-25.6s-11.469-25.6-25.6-25.6h-102.4c-14.131 0-25.6-11.469-25.6-25.6v-102.4c0-14.131-11.469-25.6-25.6-25.6zM384 119.467c-14.131 0-25.6 11.469-25.6 25.6v102.4c0 14.131-11.469 25.6-25.6 25.6h-102.4c-14.131 0-25.6 11.469-25.6 25.6s11.469 25.6 25.6 25.6h102.4c42.342 0 76.8-34.458 76.8-76.8v-102.4c0-14.131-11.469-25.6-25.6-25.6z" />
<glyph unicode="&#xe917;" glyph-name="frame-expand" d="M947.2 580.267c-14.131 0-25.6 11.469-25.6 25.6v102.4c0 14.131-11.469 25.6-25.6 25.6h-102.4c-14.131 0-25.6 11.469-25.6 25.6s11.469 25.6 25.6 25.6h102.4c42.342 0 76.8-34.458 76.8-76.8v-102.4c0-14.131-11.469-25.6-25.6-25.6zM25.6 580.267c-14.131 0-25.6 11.469-25.6 25.6v102.4c0 42.342 34.458 76.8 76.8 76.8h102.4c14.131 0 25.6-11.469 25.6-25.6s-11.469-25.6-25.6-25.6h-102.4c-14.131 0-25.6-11.469-25.6-25.6v-102.4c0-14.131-11.469-25.6-25.6-25.6zM179.2 17.067h-102.4c-42.342 0-76.8 34.458-76.8 76.8v102.4c0 14.131 11.469 25.6 25.6 25.6s25.6-11.469 25.6-25.6v-102.4c0-14.131 11.469-25.6 25.6-25.6h102.4c14.131 0 25.6-11.469 25.6-25.6s-11.469-25.6-25.6-25.6zM896 17.067h-102.4c-14.131 0-25.6 11.469-25.6 25.6s11.469 25.6 25.6 25.6h102.4c14.131 0 25.6 11.469 25.6 25.6v102.4c0 14.131 11.469 25.6 25.6 25.6s25.6-11.469 25.6-25.6v-102.4c0-42.342-34.458-76.8-76.8-76.8z" />
<glyph unicode="&#xe918;" glyph-name="funnel" d="M830.976 769.349c-20.275 13.722-48.589 25.805-84.122 35.942-69.939 19.968-162.406 30.976-260.454 30.976s-190.566-11.008-260.454-30.976c-35.533-10.138-63.795-22.221-84.122-35.942-32.614-22.016-39.424-45.363-39.424-61.082v-25.6c0-21.914 16.435-58.010 32.717-82.381l250.419-375.603c12.851-19.251 24.115-56.474 24.115-79.616v-153.6c0-8.858 4.608-17.101 12.134-21.76 4.096-2.56 8.755-3.84 13.466-3.84 3.891 0 7.834 0.922 11.469 2.714l102.4 51.2c8.653 4.352 14.131 13.21 14.131 22.886v102.4c0 23.142 11.264 60.365 24.115 79.616l250.419 375.603c16.23 24.371 32.717 60.518 32.717 82.381v25.6c0 15.718-6.861 39.066-39.424 61.082zM240.026 756.037c65.485 18.688 152.986 29.030 246.374 29.030s180.941-10.291 246.374-29.030c70.554-20.173 86.426-41.779 86.426-47.77s-15.872-27.648-86.426-47.77c-65.485-18.688-152.986-29.030-246.374-29.030s-180.941 10.291-246.374 29.030c-70.554 20.173-86.426 41.779-86.426 47.77s15.872 27.648 86.426 47.77zM544.717 253.048c-18.33-27.494-32.717-74.957-32.717-107.981v-86.579l-51.2-25.6v112.179c0 33.075-14.387 80.486-32.717 107.981l-249.856 374.784c14.029-5.99 29.952-11.571 47.718-16.589 69.939-19.968 162.406-30.976 260.454-30.976s190.566 11.008 260.454 30.976c17.715 5.069 33.69 10.598 47.718 16.64l-249.856-374.784z" />
<glyph unicode="&#xe919;" glyph-name="graduation-hat" d="M955.29 578.936l-460.8 153.6c-5.274 1.741-10.957 1.741-16.179 0l-460.8-153.6c-10.445-3.482-17.51-13.261-17.51-24.269s7.066-20.787 17.51-24.269l136.090-45.363v-135.168c0-6.81 2.714-13.312 7.475-18.125 4.506-4.506 112.333-109.875 325.325-109.875 77.466 0 149.709 13.926 214.784 41.421 13.005 5.478 19.098 20.531 13.619 33.536s-20.531 19.098-33.536 13.619c-58.726-24.832-124.262-37.376-194.816-37.376-99.584 0-172.851 25.805-216.781 47.411-32.512 16.026-54.272 32.205-64.819 40.909v106.547l273.51-91.187c2.611-0.87 5.376-1.331 8.090-1.331s5.478 0.461 8.090 1.331l273.51 91.187v-45.67c-29.798-10.547-51.2-39.014-51.2-72.397 0-31.283 18.79-58.214 45.67-70.195l-44.902-179.61c-1.894-7.629-0.205-15.77 4.659-21.965s12.288-9.83 20.173-9.83h102.4c7.885 0 15.309 3.635 20.173 9.83s6.554 14.336 4.659 21.965l-44.902 179.61c26.88 11.981 45.67 38.912 45.67 70.195 0 33.382-21.402 61.85-51.2 72.397v62.771l136.090 45.363c10.445 3.482 17.51 13.261 17.51 24.269s-7.066 20.787-17.51 24.269zM793.6 375.467c14.131 0 25.6-11.469 25.6-25.6s-11.469-25.6-25.6-25.6-25.6 11.469-25.6 25.6 11.469 25.6 25.6 25.6zM775.168 119.467l18.432 73.626 18.432-73.626h-36.813zM791.552 529.784l-300.902 50.176c-13.978 2.304-27.136-7.117-29.44-21.043s7.117-27.136 21.043-29.44l205.517-34.253-201.318-67.123-379.853 126.618 379.853 126.618 379.853-126.618-74.701-24.883z" />
<glyph unicode="&#xe91a;" glyph-name="heart-pulse" d="M486.4-34.133c-4.301 0-8.55 1.075-12.442 3.226-5.939 3.328-147.302 82.483-274.893 208.998-10.035 9.933-10.086 26.163-0.154 36.198s26.163 10.086 36.198 0.154c101.325-100.454 214.323-171.315 251.29-193.331 37.018 22.067 150.118 93.030 251.29 193.331 10.035 9.933 26.266 9.882 36.198-0.154s9.882-26.266-0.154-36.198c-127.642-126.515-268.954-205.67-274.893-208.998-3.891-2.15-8.141-3.226-12.442-3.226zM65.485 375.467c-9.626 0-18.842 5.427-23.194 14.694-28.058 59.648-42.291 119.296-42.291 177.306 0 148.224 120.576 268.8 268.8 268.8 50.176 0 103.475-18.79 150.067-52.941 27.238-19.968 50.432-44.032 67.533-69.581 17.101 25.549 40.294 49.613 67.533 69.581 46.592 34.15 99.891 52.941 150.067 52.941 148.224 0 268.8-120.576 268.8-268.8 0-58.010-14.234-117.658-42.291-177.306-6.042-12.8-21.248-18.278-34.048-12.288s-18.278 21.248-12.288 34.048c24.832 52.787 37.427 105.114 37.427 155.494 0 119.962-97.638 217.6-217.6 217.6-87.194 0-171.878-71.731-193.331-136.090-3.482-10.445-13.261-17.51-24.269-17.51s-20.787 7.066-24.269 17.51c-21.453 64.358-106.138 136.090-193.331 136.090-119.962 0-217.6-97.638-217.6-217.6 0-50.381 12.595-102.707 37.427-155.494 6.042-12.8 0.512-28.058-12.288-34.048-3.533-1.638-7.219-2.458-10.854-2.458zM538.368 170.667c-0.256 0-0.461 0-0.666 0-10.342 0.205-29.133 5.581-38.554 39.219l-62.31 221.901-41.318-167.885c-8.090-32.922-26.88-39.834-37.376-40.96s-30.31 1.382-45.517 31.744l-31.027 62.003c-1.485 2.97-2.867 4.813-3.891 5.99-0.154-0.205-0.358-0.461-0.563-0.768-18.944-27.802-61.030-48.794-97.946-48.794h-51.2c-14.131 0-25.6 11.469-25.6 25.6s11.469 25.6 25.6 25.6h51.2c21.555 0 47.155 13.926 55.654 26.419 11.418 16.742 28.006 25.651 45.619 24.474 19.149-1.28 36.25-14.285 46.95-35.635l22.784-45.568 47.923 194.714c8.090 32.768 24.678 39.885 37.171 40.090s29.286-6.4 38.451-38.912l65.741-234.291 60.314 184.73c10.496 32.154 29.798 37.683 40.346 38.144s30.208-3.482 43.366-34.662l37.069-88.013c6.963-16.486 29.594-31.539 47.462-31.539h76.8c14.131 0 25.6-11.469 25.6-25.6s-11.469-25.6-25.6-25.6h-76.8c-38.246 0-79.821 27.597-94.669 62.874l-30.31 71.987-65.229-199.68c-10.598-32.461-28.979-37.53-39.475-37.53z" />
<glyph unicode="&#xe91b;" glyph-name="heart" d="M486.4-34.133c-4.301 0-8.55 1.075-12.442 3.226-4.813 2.662-119.091 66.611-235.11 171.366-68.659 61.952-123.443 125.338-162.97 188.416-50.381 80.435-75.878 160.717-75.878 238.592 0 148.224 120.576 268.8 268.8 268.8 50.176 0 103.475-18.79 150.067-52.941 27.238-19.968 50.432-44.032 67.533-69.581 17.101 25.549 40.294 49.613 67.533 69.581 46.592 34.15 99.891 52.941 150.067 52.941 148.224 0 268.8-120.576 268.8-268.8 0-77.875-25.549-158.157-75.878-238.592-39.475-63.078-94.31-126.464-162.918-188.416-116.019-104.755-230.298-168.704-235.11-171.366-3.891-2.15-8.141-3.226-12.442-3.226zM268.8 785.067c-119.962 0-217.6-97.638-217.6-217.6 0-155.648 120.32-297.062 221.235-388.352 90.112-81.51 181.453-138.65 213.965-158.054 32.512 19.405 123.853 76.544 213.965 158.054 100.915 91.238 221.235 232.704 221.235 388.352 0 119.962-97.638 217.6-217.6 217.6-87.194 0-171.878-71.731-193.331-136.090-3.482-10.445-13.261-17.51-24.269-17.51s-20.787 7.066-24.269 17.51c-21.453 64.358-106.138 136.090-193.331 136.090z" />
<glyph unicode="&#xe91c;" glyph-name="inbox" d="M1001.318 407.057l-138.138 315.802c-15.258 34.918-57.088 62.259-95.181 62.259h-512c-38.093 0-79.923-27.341-95.181-62.259l-138.138-315.802c-12.698-29.082-22.682-76.646-22.682-108.39v-204.8c0-42.342 34.458-76.8 76.8-76.8h870.4c42.342 0 76.8 34.458 76.8 76.8v204.8c0 31.693-9.933 79.309-22.682 108.39zM207.718 702.277c7.219 16.538 30.259 31.59 48.282 31.59h512c18.022 0 41.062-15.053 48.282-31.59l138.138-315.802c1.536-3.533 3.072-7.578 4.557-11.93-3.84 0.614-7.782 0.922-11.776 0.922h-307.2c-14.131 0-25.6-11.469-25.6-25.6v-25.6c0-56.474-45.926-102.4-102.4-102.4s-102.4 45.926-102.4 102.4v25.6c0 14.131-11.469 25.6-25.6 25.6h-307.2c-3.994 0-7.936-0.307-11.776-0.922 1.485 4.352 2.97 8.397 4.557 11.93l138.138 315.802zM972.8 93.867c0-14.131-11.469-25.6-25.6-25.6h-870.4c-14.131 0-25.6 11.469-25.6 25.6v204.8c0 14.131 11.469 25.6 25.6 25.6h281.6c0-84.685 68.915-153.6 153.6-153.6s153.6 68.915 153.6 153.6h281.6c14.131 0 25.6-11.469 25.6-25.6v-204.8z" />
<glyph unicode="&#xe91d;" glyph-name="keyboard" d="M896 119.467h-819.2c-42.342 0-76.8 34.458-76.8 76.8v409.6c0 42.342 34.458 76.8 76.8 76.8h819.2c42.342 0 76.8-34.458 76.8-76.8v-409.6c0-42.342-34.458-76.8-76.8-76.8zM76.8 631.467c-14.131 0-25.6-11.469-25.6-25.6v-409.6c0-14.131 11.469-25.6 25.6-25.6h819.2c14.131 0 25.6 11.469 25.6 25.6v409.6c0 14.131-11.469 25.6-25.6 25.6h-819.2zM179.2 529.067h-51.2c-14.131 0-25.6 11.469-25.6 25.6s11.469 25.6 25.6 25.6h51.2c14.131 0 25.6-11.469 25.6-25.6s-11.469-25.6-25.6-25.6zM844.8 529.067h-51.2c-14.131 0-25.6 11.469-25.6 25.6s11.469 25.6 25.6 25.6h51.2c14.131 0 25.6-11.469 25.6-25.6s-11.469-25.6-25.6-25.6zM230.4 426.667h-102.4c-14.131 0-25.6 11.469-25.6 25.6s11.469 25.6 25.6 25.6h102.4c14.131 0 25.6-11.469 25.6-25.6s-11.469-25.6-25.6-25.6zM179.2 221.867h-51.2c-14.131 0-25.6 11.469-25.6 25.6s11.469 25.6 25.6 25.6h51.2c14.131 0 25.6-11.469 25.6-25.6s-11.469-25.6-25.6-25.6zM588.8 221.867h-307.2c-14.131 0-25.6 11.469-25.6 25.6s11.469 25.6 25.6 25.6h307.2c14.131 0 25.6-11.469 25.6-25.6s-11.469-25.6-25.6-25.6zM742.4 221.867h-51.2c-14.131 0-25.6 11.469-25.6 25.6s11.469 25.6 25.6 25.6h51.2c14.131 0 25.6-11.469 25.6-25.6s-11.469-25.6-25.6-25.6zM844.8 324.267h-153.6c-14.131 0-25.6 11.469-25.6 25.6s11.469 25.6 25.6 25.6h128v76.8c0 14.131 11.469 25.6 25.6 25.6s25.6-11.469 25.6-25.6v-102.4c0-14.131-11.469-25.6-25.6-25.6zM281.6 324.267h-153.6c-14.131 0-25.6 11.469-25.6 25.6s11.469 25.6 25.6 25.6h153.6c14.131 0 25.6-11.469 25.6-25.6s-11.469-25.6-25.6-25.6zM307.2 554.667c0-14.131-11.469-25.6-25.6-25.6s-25.6 11.469-25.6 25.6c0 14.131 11.469 25.6 25.6 25.6s25.6-11.469 25.6-25.6zM409.6 554.667c0-14.131-11.469-25.6-25.6-25.6s-25.6 11.469-25.6 25.6c0 14.131 11.469 25.6 25.6 25.6s25.6-11.469 25.6-25.6zM512 554.667c0-14.131-11.469-25.6-25.6-25.6s-25.6 11.469-25.6 25.6c0 14.131 11.469 25.6 25.6 25.6s25.6-11.469 25.6-25.6zM614.4 554.667c0-14.131-11.469-25.6-25.6-25.6s-25.6 11.469-25.6 25.6c0 14.131 11.469 25.6 25.6 25.6s25.6-11.469 25.6-25.6zM716.8 554.667c0-14.131-11.469-25.6-25.6-25.6s-25.6 11.469-25.6 25.6c0 14.131 11.469 25.6 25.6 25.6s25.6-11.469 25.6-25.6zM358.4 452.267c0-14.131-11.469-25.6-25.6-25.6s-25.6 11.469-25.6 25.6c0 14.131 11.469 25.6 25.6 25.6s25.6-11.469 25.6-25.6zM460.8 452.267c0-14.131-11.469-25.6-25.6-25.6s-25.6 11.469-25.6 25.6c0 14.131 11.469 25.6 25.6 25.6s25.6-11.469 25.6-25.6zM563.2 452.267c0-14.131-11.469-25.6-25.6-25.6s-25.6 11.469-25.6 25.6c0 14.131 11.469 25.6 25.6 25.6s25.6-11.469 25.6-25.6zM665.6 452.267c0-14.131-11.469-25.6-25.6-25.6s-25.6 11.469-25.6 25.6c0 14.131 11.469 25.6 25.6 25.6s25.6-11.469 25.6-25.6zM768 452.267c0-14.131-11.469-25.6-25.6-25.6s-25.6 11.469-25.6 25.6c0 14.131 11.469 25.6 25.6 25.6s25.6-11.469 25.6-25.6zM409.6 349.867c0-14.131-11.469-25.6-25.6-25.6s-25.6 11.469-25.6 25.6c0 14.131 11.469 25.6 25.6 25.6s25.6-11.469 25.6-25.6zM512 349.867c0-14.131-11.469-25.6-25.6-25.6s-25.6 11.469-25.6 25.6c0 14.131 11.469 25.6 25.6 25.6s25.6-11.469 25.6-25.6zM614.4 349.867c0-14.131-11.469-25.6-25.6-25.6s-25.6 11.469-25.6 25.6c0 14.131 11.469 25.6 25.6 25.6s25.6-11.469 25.6-25.6z" />
<glyph unicode="&#xe91e;" glyph-name="laptop-phone" d="M588.8 221.867h-409.6c-42.342 0-76.8 34.458-76.8 76.8v409.6c0 42.342 34.458 76.8 76.8 76.8h665.6c42.342 0 76.8-34.458 76.8-76.8v-51.2c0-14.131-11.469-25.6-25.6-25.6s-25.6 11.469-25.6 25.6v51.2c0 14.131-11.469 25.6-25.6 25.6h-665.6c-14.131 0-25.6-11.469-25.6-25.6v-409.6c0-14.131 11.469-25.6 25.6-25.6h409.6c14.131 0 25.6-11.469 25.6-25.6s-11.469-25.6-25.6-25.6zM588.8 17.067h-512c-42.342 0-76.8 34.458-76.8 76.8v51.2c0 14.131 11.469 25.6 25.6 25.6h563.2c14.131 0 25.6-11.469 25.6-25.6s-11.469-25.6-25.6-25.6h-537.6v-25.6c0-14.131 11.469-25.6 25.6-25.6h512c14.131 0 25.6-11.469 25.6-25.6s-11.469-25.6-25.6-25.6zM947.2 17.067h-204.8c-42.342 0-76.8 34.458-76.8 76.8v409.6c0 42.342 34.458 76.8 76.8 76.8h204.8c42.342 0 76.8-34.458 76.8-76.8v-409.6c0-42.342-34.458-76.8-76.8-76.8zM742.4 529.067c-14.131 0-25.6-11.469-25.6-25.6v-409.6c0-14.131 11.469-25.6 25.6-25.6h204.8c14.131 0 25.6 11.469 25.6 25.6v409.6c0 14.131-11.469 25.6-25.6 25.6h-204.8zM844.8 119.467c-6.758 0-13.312 2.714-18.074 7.526s-7.526 11.366-7.526 18.074 2.714 13.363 7.526 18.074c4.762 4.762 11.366 7.526 18.074 7.526s13.363-2.714 18.074-7.526c4.762-4.762 7.526-11.366 7.526-18.074s-2.714-13.363-7.526-18.074c-4.762-4.762-11.366-7.526-18.074-7.526z" />
<glyph unicode="&#xe91f;" glyph-name="laptop" d="M179.2 221.867h665.6c42.342 0 76.8 34.458 76.8 76.8v409.6c0 42.342-34.458 76.8-76.8 76.8h-665.6c-42.342 0-76.8-34.458-76.8-76.8v-409.6c0-42.342 34.458-76.8 76.8-76.8zM153.6 708.267c0 14.131 11.469 25.6 25.6 25.6h665.6c14.131 0 25.6-11.469 25.6-25.6v-409.6c0-14.131-11.469-25.6-25.6-25.6h-665.6c-14.131 0-25.6 11.469-25.6 25.6v409.6zM998.4 170.667h-972.8c-14.131 0-25.6-11.469-25.6-25.6v-51.2c0-42.342 34.458-76.8 76.8-76.8h870.4c42.342 0 76.8 34.458 76.8 76.8v51.2c0 14.131-11.469 25.6-25.6 25.6zM947.2 68.267h-870.4c-14.131 0-25.6 11.469-25.6 25.6v25.6h921.6v-25.6c0-14.131-11.469-25.6-25.6-25.6z" />
<glyph unicode="&#xe920;" glyph-name="layers" d="M512 324.267c-3.379 0-6.758 0.666-9.933 1.997l-486.4 204.8c-9.472 3.994-15.667 13.312-15.667 23.603s6.195 19.61 15.667 23.603l486.4 204.8c6.349 2.662 13.517 2.662 19.866 0l486.4-204.8c9.472-3.994 15.667-13.312 15.667-23.603s-6.195-19.61-15.667-23.603l-486.4-204.8c-3.174-1.331-6.554-1.997-9.933-1.997zM91.546 554.667l420.454-176.998 420.454 176.998-420.454 176.998-420.454-176.998zM512 170.667c-3.379 0-6.758 0.666-9.933 1.997l-486.4 204.8c-13.005 5.478-19.149 20.48-13.67 33.536s20.48 19.149 33.536 13.67l476.467-200.602 476.467 200.602c13.005 5.478 28.058-0.614 33.536-13.67s-0.614-28.058-13.67-33.536l-486.4-204.8c-3.174-1.331-6.554-1.997-9.933-1.997zM512 17.067c-3.379 0-6.758 0.666-9.933 1.997l-486.4 204.8c-13.005 5.478-19.149 20.48-13.67 33.536s20.48 19.149 33.536 13.67l476.467-200.602 476.467 200.602c13.005 5.478 28.058-0.614 33.536-13.67s-0.614-28.058-13.67-33.536l-486.4-204.8c-3.174-1.331-6.554-1.997-9.933-1.997z" />
<glyph unicode="&#xe921;" glyph-name="license" d="M947.2 17.067h-870.4c-42.342 0-76.8 34.458-76.8 76.8v665.6c0 42.342 34.458 76.8 76.8 76.8h870.4c42.342 0 76.8-34.458 76.8-76.8v-665.6c0-42.342-34.458-76.8-76.8-76.8zM76.8 785.067c-14.131 0-25.6-11.469-25.6-25.6v-665.6c0-14.131 11.469-25.6 25.6-25.6h870.4c14.131 0 25.6 11.469 25.6 25.6v665.6c0 14.131-11.469 25.6-25.6 25.6h-870.4zM486.4 631.467h-307.2c-14.131 0-25.6 11.469-25.6 25.6s11.469 25.6 25.6 25.6h307.2c14.131 0 25.6-11.469 25.6-25.6s-11.469-25.6-25.6-25.6zM486.4 477.867h-307.2c-14.131 0-25.6 11.469-25.6 25.6s11.469 25.6 25.6 25.6h307.2c14.131 0 25.6-11.469 25.6-25.6s-11.469-25.6-25.6-25.6zM486.4 375.467h-307.2c-14.131 0-25.6 11.469-25.6 25.6s11.469 25.6 25.6 25.6h307.2c14.131 0 25.6-11.469 25.6-25.6s-11.469-25.6-25.6-25.6zM486.4 273.067h-307.2c-14.131 0-25.6 11.469-25.6 25.6s11.469 25.6 25.6 25.6h307.2c14.131 0 25.6-11.469 25.6-25.6s-11.469-25.6-25.6-25.6zM435.2 170.667h-256c-14.131 0-25.6 11.469-25.6 25.6s11.469 25.6 25.6 25.6h256c14.131 0 25.6-11.469 25.6-25.6s-11.469-25.6-25.6-25.6zM918.682 603.614l-41.626 30.259-15.923 48.947h-51.456l-41.626 30.259-41.626-30.259h-51.456l-15.923-48.947-41.626-30.259 15.923-48.947-15.923-48.947 41.626-30.259 6.758-20.787c-0.102-0.819-0.102-1.587-0.102-2.406v-256c0-10.342 6.246-19.712 15.821-23.654s20.582-1.792 27.904 5.53l58.675 58.675 58.675-58.675c4.915-4.915 11.418-7.526 18.125-7.475 3.277 0 6.605 0.614 9.779 1.946 9.574 3.942 15.821 13.312 15.821 23.654v256c0 0.819-0.051 1.638-0.102 2.406l6.758 20.787 41.626 30.259-15.923 48.947 15.923 48.947zM677.53 584.056l24.986 18.176 9.574 29.389h30.925l24.986 18.176 24.986-18.176h30.925l9.574-29.389 24.986-18.176-9.574-29.389 9.574-29.389-24.986-18.176-9.574-29.389h-30.925l-24.986-18.176-24.986 18.176h-30.925l-9.574 29.389-24.986 18.176 9.574 29.389-9.574 29.389zM786.125 291.192c-9.984 9.984-26.214 9.984-36.198 0l-33.075-33.075v168.448h9.574l41.626-30.259 41.626 30.259h9.574v-168.448l-33.075 33.075z" />
<glyph unicode="&#xe922;" glyph-name="location" d="M435.2-85.333c-2.202 0-4.454 0.307-6.656 0.87-11.162 3.021-18.944 13.158-18.944 24.73v384h-384c-11.571 0-21.709 7.782-24.73 18.944s1.894 22.989 11.878 28.774l972.8 563.2c10.035 5.786 22.733 4.147 30.925-4.045s9.882-20.89 4.045-30.925l-563.2-972.8c-4.659-8.038-13.21-12.749-22.17-12.749zM120.934 375.467h314.266c14.131 0 25.6-11.469 25.6-25.6v-314.266l467.354 807.219-807.219-467.354z" />
<glyph unicode="&#xe923;" glyph-name="shield" d="M512-46.346c-32.309 0-149.056 19.776-294.933 274.293-95.851 167.221-153.067 350.133-153.067 489.291v32h32c230.528 0 395.168 121.483 396.8 122.709l19.2 14.4 19.2-14.4c1.611-1.205 167.264-122.709 396.8-122.709h32v-32c0-139.168-57.216-322.069-153.067-489.291-145.867-254.507-262.624-274.293-294.933-274.293zM129.056 685.995c8.021-123.221 61.483-283.051 143.541-426.219 83.008-144.811 179.221-242.112 239.413-242.112 60.203 0 156.405 97.301 239.413 242.112 82.048 143.168 135.509 302.997 143.531 426.219-190.667 8.597-333.013 89.195-382.944 121.568-49.941-32.373-192.299-112.981-382.955-121.568z" />
<glyph unicode="&#xe924;" glyph-name="magnifier" d="M966.093-42.427l-304.282 331.981c68.557 71.731 106.24 165.53 106.24 265.114 0 102.554-39.936 199.014-112.486 271.514s-168.96 112.486-271.514 112.486-199.014-39.936-271.514-112.486-112.486-168.96-112.486-271.514 39.936-199.014 112.486-271.514 168.96-112.486 271.514-112.486c88.371 0 172.134 29.645 240.026 84.224l304.282-331.93c5.069-5.53 11.93-8.294 18.893-8.294 6.195 0 12.39 2.202 17.306 6.707 10.445 9.574 11.11 25.754 1.587 36.147zM51.2 554.667c0 183.501 149.299 332.8 332.8 332.8s332.8-149.299 332.8-332.8-149.299-332.8-332.8-332.8-332.8 149.299-332.8 332.8z" />
<glyph unicode="&#xe925;" glyph-name="menu" d="M896 631.467h-768c-14.131 0-25.6 11.469-25.6 25.6s11.469 25.6 25.6 25.6h768c14.131 0 25.6-11.469 25.6-25.6s-11.469-25.6-25.6-25.6zM896 375.467h-768c-14.131 0-25.6 11.469-25.6 25.6s11.469 25.6 25.6 25.6h768c14.131 0 25.6-11.469 25.6-25.6s-11.469-25.6-25.6-25.6zM896 119.467h-768c-14.131 0-25.6 11.469-25.6 25.6s11.469 25.6 25.6 25.6h768c14.131 0 25.6-11.469 25.6-25.6s-11.469-25.6-25.6-25.6z" />
<glyph unicode="&#xe926;" glyph-name="paperclip" d="M486.4-85.333c-127.027 0-230.4 103.373-230.4 230.4v614.4c0 98.816 80.384 179.2 179.2 179.2s179.2-80.384 179.2-179.2v-563.2c0-70.554-57.446-128-128-128s-128 57.446-128 128v307.2c0 14.131 11.469 25.6 25.6 25.6s25.6-11.469 25.6-25.6v-307.2c0-42.342 34.458-76.8 76.8-76.8s76.8 34.458 76.8 76.8v563.2c0 70.554-57.446 128-128 128s-128-57.446-128-128v-614.4c0-98.816 80.384-179.2 179.2-179.2s179.2 80.384 179.2 179.2v358.4c0 14.131 11.469 25.6 25.6 25.6s25.6-11.469 25.6-25.6v-358.4c0-127.027-103.373-230.4-230.4-230.4z" />
<glyph unicode="&#xe927;" glyph-name="paw" d="M153.6 324.267c-57.446 0-102.4 67.686-102.4 154.163s44.954 154.163 102.4 154.163 102.4-67.686 102.4-154.163-44.954-154.163-102.4-154.163zM153.6 581.393c-24.166 0-51.2-44.032-51.2-102.963s27.034-102.963 51.2-102.963 51.2 44.032 51.2 102.963-27.034 102.963-51.2 102.963zM358.298 529.067c-57.344 0-102.298 67.482-102.298 153.6s44.954 153.6 102.298 153.6 102.298-67.482 102.298-153.6-44.954-153.6-102.298-153.6zM358.298 785.067c-24.115 0-51.098-43.776-51.098-102.4s26.982-102.4 51.098-102.4 51.098 43.776 51.098 102.4-26.982 102.4-51.098 102.4zM614.4 529.067c-57.446 0-102.4 67.482-102.4 153.6s44.954 153.6 102.4 153.6 102.4-67.482 102.4-153.6-44.954-153.6-102.4-153.6zM614.4 785.067c-24.166 0-51.2-43.776-51.2-102.4s27.034-102.4 51.2-102.4 51.2 43.776 51.2 102.4-27.034 102.4-51.2 102.4zM819.2 324.267c-57.446 0-102.4 67.686-102.4 154.163s44.954 154.163 102.4 154.163 102.4-67.686 102.4-154.163-44.954-154.163-102.4-154.163zM819.2 581.393c-24.166 0-51.2-44.032-51.2-102.963s27.034-102.963 51.2-102.963 51.2 44.032 51.2 102.963-27.034 102.963-51.2 102.963zM665.6 17.067c-44.442 0-74.496 15.053-100.966 28.314-24.576 12.288-45.773 22.886-78.234 22.886-32.307 0-53.504-10.598-78.080-22.886-26.573-13.261-56.678-28.314-101.12-28.314-28.467 0-55.245 15.514-73.574 42.547-32.102 47.411-32.614 119.347-1.434 197.376 56.166 140.39 148.787 220.877 254.157 220.877s198.042-80.486 254.157-220.877c31.181-78.029 30.669-149.965-1.434-197.376-18.278-27.034-45.107-42.547-73.574-42.547zM486.4 119.467c44.493 0 74.598-15.053 101.12-28.314 24.525-12.288 45.722-22.886 78.080-22.886 11.162 0 22.528 7.322 31.181 20.019 22.118 32.614 20.685 88.576-3.738 149.658-47.974 119.91-123.29 188.723-206.643 188.723s-158.669-68.762-206.643-188.723c-24.422-61.082-25.805-117.043-3.738-149.658 8.602-12.749 19.968-20.019 31.181-20.019 32.358 0 53.606 10.598 78.234 22.938 26.522 13.261 56.627 28.314 100.966 28.314z" />
<glyph unicode="&#xe928;" glyph-name="pencil" d="M978.125 892.792c-28.774 28.774-67.021 44.595-107.725 44.595s-78.95-15.821-107.725-44.595l-652.8-652.8c-2.662-2.662-4.659-5.837-5.939-9.37l-102.4-281.6c-3.379-9.37-1.075-19.814 5.939-26.829 4.864-4.864 11.418-7.475 18.125-7.475 2.918 0 5.888 0.512 8.755 1.536l281.6 102.4c3.533 1.28 6.707 3.328 9.37 5.939l652.8 652.8c28.774 28.774 44.595 67.021 44.595 107.725s-15.821 78.95-44.595 107.725zM293.12 64.785l-224.717-81.715 81.715 224.717 566.682 566.682 143.002-143.002-566.682-566.682zM941.875 713.592l-45.875-45.875-143.002 143.002 45.875 45.875c19.098 19.098 44.493 29.594 71.475 29.594s52.378-10.496 71.475-29.594c19.098-19.098 29.594-44.493 29.594-71.475s-10.496-52.378-29.594-71.475z" />
<glyph unicode="&#xe929;" glyph-name="phone-handset" d="M819.2-85.333c-90.675 0-187.136 25.702-286.72 76.39-91.802 46.746-182.477 113.664-262.246 193.536s-146.586 170.65-193.28 262.502c-50.586 99.635-76.288 196.096-76.288 286.771 0 58.778 54.784 115.558 78.285 137.216 33.843 31.181 87.091 67.584 125.798 67.584 19.251 0 41.779-12.595 71.014-39.629 21.76-20.173 46.285-47.514 70.81-79.053 14.797-19.046 88.576-116.275 88.576-162.918 0-38.246-43.264-64.87-89.037-92.979-17.715-10.854-35.994-22.118-49.203-32.717-14.131-11.315-16.64-17.306-17.050-18.637 48.589-121.139 197.12-269.67 318.208-318.208 1.075 0.358 7.066 2.714 18.586 17.050 10.598 13.21 21.862 31.539 32.717 49.203 28.16 45.773 54.733 89.037 92.979 89.037 46.643 0 143.872-73.779 162.918-88.576 31.539-24.525 58.88-49.050 79.053-70.81 27.034-29.184 39.629-51.763 39.629-71.014 0-38.707-36.403-92.109-67.533-126.106-21.709-23.654-78.49-78.694-137.267-78.694zM204.493 887.467c-13.722-0.256-50.637-17.050-90.778-54.016-38.093-35.123-61.798-73.267-61.798-99.584 0-344.525 423.117-768 767.283-768 26.266 0 64.41 23.808 99.533 62.106 37.018 40.346 53.811 77.414 54.067 91.187-1.638 9.728-28.57 47.565-102.246 104.294-63.334 48.742-114.688 74.906-127.898 75.213-0.922-0.256-6.656-2.458-18.278-17.203-10.086-12.851-20.89-30.413-31.386-47.411-28.672-46.643-55.757-90.726-95.13-90.726-6.349 0-12.595 1.229-18.586 3.635-134.4 53.76-293.325 212.685-347.085 347.085-6.451 16.128-7.475 41.421 24.269 70.195 16.896 15.309 40.243 29.645 62.874 43.571 16.998 10.445 34.611 21.248 47.411 31.386 14.746 11.622 16.947 17.357 17.203 18.278-0.358 13.21-26.47 64.563-75.213 127.898-56.73 73.677-94.566 100.557-104.294 102.246z" />
<glyph unicode="&#xe92a;" glyph-name="phone" d="M916.173 483.141c-53.299 0-149.914 19.2-180.019 49.306-18.483 18.483-22.835 41.626-26.368 60.262-4.352 22.938-6.963 29.747-16.998 34.099-46.182 19.866-112.435 31.232-181.811 31.232-68.608 0-134.144-11.213-179.814-30.72-9.933-4.25-12.493-11.059-16.742-33.946-3.482-18.688-7.782-41.933-26.214-60.365-16.794-16.794-51.968-28.365-78.49-35.072-34.202-8.653-70.861-13.67-100.506-13.67-33.997 0-56.986 6.451-70.246 19.763-20.019 20.019-32.819 47.411-35.072 75.11-1.894 23.347 2.611 57.958 34.816 90.214 52.326 52.326 122.675 93.133 209.203 121.242 79.565 25.907 170.086 39.578 261.837 39.578 92.365 0 183.654-13.824 263.987-40.038 87.296-28.467 158.362-69.683 211.149-122.522 53.76-53.76 40.448-125.082 0.614-164.915-13.158-13.158-35.84-19.558-69.325-19.558zM510.976 709.24c77.158 0 148.89-12.595 202.035-35.379 36.506-15.667 42.65-48.026 47.104-71.578 2.662-14.080 4.966-26.266 12.288-33.587 12.902-12.902 87.347-34.355 143.821-34.355 24.627 0 32.41 4.198 33.382 4.813 15.872 16.077 35.738 55.603-0.87 92.262-92.416 92.416-256.512 147.558-438.989 147.558-180.992 0-343.501-54.528-434.842-145.818-14.746-14.746-21.504-31.539-20.019-49.869 1.28-15.462 8.704-31.437 19.968-42.803 0.973-0.614 8.858-5.018 34.304-5.018 56.218 0 130.099 21.043 142.797 33.741 7.219 7.219 9.472 19.405 12.083 33.485 4.403 23.654 10.394 56.064 46.95 71.68 52.531 22.477 123.546 34.816 199.936 34.816zM844.8 17.067h-665.6c-34.355 0-66.048 13.517-89.242 38.042s-34.918 56.934-33.024 91.238c0.205 3.942 6.042 97.331 65.024 191.437 34.918 55.706 81.203 100.096 137.523 131.942 69.683 39.373 154.624 59.341 252.518 59.341s182.835-19.968 252.518-59.341c56.371-31.846 102.656-76.237 137.523-131.942 58.982-94.157 64.819-187.546 65.024-191.437 1.894-34.304-9.83-66.714-33.024-91.238s-54.886-38.042-89.242-38.042zM512 477.867c-159.59 0-275.866-55.706-345.549-165.53-52.736-83.098-58.317-168.038-58.368-168.909-1.126-20.070 5.683-38.963 19.098-53.146s31.898-22.016 52.070-22.016h665.6c20.122 0 38.605 7.834 52.070 22.016s20.224 33.075 19.098 53.197c-0.051 0.819-5.683 85.76-58.368 168.858-69.734 109.824-186.010 165.53-345.549 165.53zM512 119.467c-84.685 0-153.6 68.915-153.6 153.6s68.915 153.6 153.6 153.6 153.6-68.915 153.6-153.6-68.915-153.6-153.6-153.6zM512 375.467c-56.474 0-102.4-45.926-102.4-102.4s45.926-102.4 102.4-102.4c56.474 0 102.4 45.926 102.4 102.4s-45.926 102.4-102.4 102.4z" />
<glyph unicode="&#xe92b;" glyph-name="picture" d="M947.2-85.333h-870.4c-42.342 0-76.8 34.458-76.8 76.8v870.4c0 42.342 34.458 76.8 76.8 76.8h870.4c42.342 0 76.8-34.458 76.8-76.8v-870.4c0-42.342-34.458-76.8-76.8-76.8zM76.8 887.467c-14.131 0-25.6-11.469-25.6-25.6v-870.4c0-14.131 11.469-25.6 25.6-25.6h870.4c14.131 0 25.6 11.469 25.6 25.6v870.4c0 14.131-11.469 25.6-25.6 25.6h-870.4zM665.6 477.867c-56.474 0-102.4 45.926-102.4 102.4s45.926 102.4 102.4 102.4 102.4-45.926 102.4-102.4-45.926-102.4-102.4-102.4zM665.6 631.467c-28.211 0-51.2-22.989-51.2-51.2s22.989-51.2 51.2-51.2 51.2 22.989 51.2 51.2-22.989 51.2-51.2 51.2zM896 836.267h-768c-14.131 0-25.6-11.469-25.6-25.6v-614.4c0-14.131 11.469-25.6 25.6-25.6h768c14.131 0 25.6 11.469 25.6 25.6v614.4c0 14.131-11.469 25.6-25.6 25.6zM153.6 340.139l164.301 184.883c4.198 4.71 9.677 7.373 15.462 7.424s11.315-2.458 15.616-7.066l283.29-303.514h-478.669v118.272zM870.4 221.867h-168.090l-315.853 338.432c-14.285 15.309-33.331 23.603-53.709 23.347s-39.219-9.011-53.094-24.627l-126.054-141.824v367.872h716.8v-563.2z" />
<glyph unicode="&#xe92c;" glyph-name="pie-chart" d="M435.2-85.333c-116.224 0-225.536 45.261-307.712 127.488s-127.488 191.488-127.488 307.712c0 116.224 45.261 225.536 127.488 307.712s191.488 127.488 307.712 127.488c14.131 0 25.6-11.469 25.6-25.6v-384h384c14.131 0 25.6-11.469 25.6-25.6 0-116.224-45.261-225.536-127.488-307.712s-191.488-127.488-307.712-127.488zM409.6 733.048c-199.834-13.21-358.4-180.019-358.4-383.181 0-211.763 172.237-384 384-384 203.11 0 369.92 158.566 383.181 358.4h-383.181c-14.131 0-25.6 11.469-25.6 25.6v383.181zM947.2 426.667h-409.6c-14.131 0-25.6 11.469-25.6 25.6v409.6c0 14.131 11.469 25.6 25.6 25.6 116.224 0 225.536-45.261 307.712-127.488s127.488-191.488 127.488-307.712c0-14.131-11.469-25.6-25.6-25.6zM563.2 477.867h357.581c-12.646 191.386-166.195 344.883-357.581 357.581v-357.581z" />
<glyph unicode="&#xe92d;" glyph-name="pushpin" d="M921.6 590.865l-271.002 271.002c-9.626 9.626-22.528 14.95-36.198 14.95s-26.573-5.325-36.198-14.95l-15.002-15.002c-14.848-14.848-25.6-40.806-25.6-61.798v-51.2c0-7.27-5.427-20.429-10.598-25.6l-143.002-143.002c-5.171-5.171-18.33-10.598-25.6-10.598h-51.2c-20.992 0-46.95-10.752-61.798-25.6l-15.002-15.002c-19.968-19.968-19.968-52.429 0-72.397l79.514-79.514-253.44-329.472c-7.834-10.189-6.912-24.627 2.202-33.69 4.966-4.966 11.52-7.475 18.125-7.475 5.478 0 10.957 1.741 15.616 5.325l329.472 253.44 79.514-79.514c9.626-9.626 22.528-14.95 36.198-14.95s26.573 5.325 36.198 14.95l15.002 15.002c14.848 14.848 25.6 40.806 25.6 61.798v51.2c0 7.27 5.427 20.429 10.598 25.6l143.002 143.002c5.171 5.171 18.33 10.598 25.6 10.598h51.2c20.992 0 46.95 10.752 61.798 25.6l15.002 15.002c9.626 9.626 14.95 22.528 14.95 36.198s-5.325 26.573-14.95 36.198zM216.781 157.048l129.69 168.602 38.912-38.912-168.602-129.69zM870.4 539.665c-5.171-5.171-18.33-10.598-25.6-10.598h-51.2c-20.992 0-46.95-10.752-61.798-25.6l-143.002-143.002c-14.848-14.848-25.6-40.806-25.6-61.798v-51.2c0-7.27-5.427-20.429-10.598-25.6l-14.95-14.95c0 0-0.051 0-0.051 0v-0.051l-271.002 271.002 15.002 15.002c5.171 5.171 18.33 10.598 25.6 10.598h51.2c20.992 0 46.95 10.752 61.798 25.6l143.002 143.002c14.848 14.848 25.6 40.806 25.6 61.798v51.2c0 7.27 5.427 20.429 10.598 25.6l15.002 15.002 271.002-271.002-15.002-15.002z" />
<glyph unicode="&#xe92e;" glyph-name="rocket" d="M691.2 477.867c-70.554 0-128 57.446-128 128s57.446 128 128 128 128-57.446 128-128-57.446-128-128-128zM691.2 682.667c-42.342 0-76.8-34.458-76.8-76.8s34.458-76.8 76.8-76.8 76.8 34.458 76.8 76.8-34.458 76.8-76.8 76.8zM25.6-85.333c-6.656 0-13.21 2.611-18.125 7.475-7.014 7.014-9.37 17.51-5.939 26.829 78.797 216.627 161.638 326.502 246.17 326.502 27.904 0 53.965-11.981 77.568-35.533 37.274-37.274 38.605-74.394 33.178-98.97-17.101-77.21-126.157-152.832-324.096-224.819-2.867-1.024-5.837-1.536-8.755-1.536zM247.757 224.325c-25.344 0-55.194-22.221-86.272-64.256-30.566-41.318-61.286-100.198-91.546-175.462 68.352 27.494 123.29 55.398 163.789 83.2 54.63 37.53 70.81 66.56 74.752 84.275s-2.406 34.662-19.405 51.661c-13.824 13.824-27.341 20.531-41.37 20.531zM998.4 938.667c-132.864 0-251.238-22.528-351.949-66.97-82.995-36.659-154.061-88.064-211.251-152.883-10.65-12.083-20.531-24.32-29.696-36.608-44.134-2.918-89.293-20.48-134.349-52.224-38.144-26.829-76.442-64-113.92-110.438-62.976-78.029-101.683-154.982-103.322-158.208-5.581-11.213-2.253-24.832 7.885-32.154 4.506-3.277 9.779-4.864 15.002-4.864 6.554 0 13.107 2.509 18.074 7.424 0.256 0.256 24.73 24.32 66.458 47.923 34.406 19.456 87.45 42.342 151.603 46.387 16.23-41.523 62.669-91.187 84.941-113.459s71.936-68.71 113.459-84.941c-4.045-64.154-26.931-117.197-46.387-151.603-23.654-41.779-47.667-66.202-47.872-66.406-8.858-8.858-9.984-22.886-2.662-33.075 4.966-6.861 12.749-10.65 20.787-10.65 3.891 0 7.782 0.87 11.418 2.714 3.226 1.638 80.179 40.346 158.208 103.322 46.438 37.478 83.61 75.776 110.438 113.92 31.744 45.107 49.254 90.214 52.224 134.349 12.237 9.114 24.474 18.995 36.608 29.696 64.819 57.19 116.224 128.256 152.883 211.251 44.442 100.659 66.97 219.085 66.97 351.949v25.6h-25.6zM159.078 436.497c48.794 70.81 123.392 158.618 207.462 186.214-33.229-58.214-50.432-111.667-56.627-145.562-59.341-3.635-110.49-20.89-150.835-40.653zM521.882 73.899c19.763 40.346 37.018 91.443 40.602 150.733 33.843 6.195 87.347 23.398 145.51 56.576-27.648-83.917-115.405-158.515-186.163-207.309zM770.253 388.267c-106.496-93.952-216.781-115.2-232.653-115.2-0.102 0-10.598 0.205-38.861 20.122-19.712 13.875-42.701 33.638-64.614 55.552s-41.677 44.902-55.552 64.614c-19.917 28.262-20.122 38.758-20.122 38.861 0 15.872 21.248 126.157 115.2 232.653 112.435 127.386 284.518 197.069 498.893 202.24-5.171-214.374-74.803-386.458-202.24-498.893z" />
<glyph unicode="&#xe92f;" glyph-name="screen" d="M896 836.267h-819.2c-42.342 0-76.8-34.458-76.8-76.8v-512c0-42.342 34.458-76.8 76.8-76.8h384v-102.4h-179.2c-14.131 0-25.6-11.469-25.6-25.6s11.469-25.6 25.6-25.6h409.6c14.131 0 25.6 11.469 25.6 25.6s-11.469 25.6-25.6 25.6h-179.2v102.4h384c42.342 0 76.8 34.458 76.8 76.8v512c0 42.342-34.458 76.8-76.8 76.8zM921.6 247.467c0-14.131-11.469-25.6-25.6-25.6h-819.2c-14.131 0-25.6 11.469-25.6 25.6v512c0 14.131 11.469 25.6 25.6 25.6h819.2c14.131 0 25.6-11.469 25.6-25.6v-512z" />
<glyph unicode="&#xe930;" glyph-name="select" d="M281.6 170.667h-204.8c-42.342 0-76.8 34.458-76.8 76.8v614.4c0 42.342 34.458 76.8 76.8 76.8h716.8c42.342 0 76.8-34.458 76.8-76.8v-358.4c0-14.131-11.469-25.6-25.6-25.6s-25.6 11.469-25.6 25.6v358.4c0 14.131-11.469 25.6-25.6 25.6h-716.8c-14.131 0-25.6-11.469-25.6-25.6v-614.4c0-14.131 11.469-25.6 25.6-25.6h204.8c14.131 0 25.6-11.469 25.6-25.6s-11.469-25.6-25.6-25.6zM665.6-85.333c-10.138 0-19.763 6.093-23.757 16.077l-86.886 217.19-151.706-173.363c-7.014-8.038-18.278-10.854-28.262-7.117s-16.589 13.312-16.589 23.962v768c0 10.138 5.99 19.302 15.258 23.398s20.070 2.355 27.597-4.454l563.2-512c7.834-7.117 10.496-18.33 6.656-28.16s-13.312-16.384-23.859-16.384h-218.163l88.371-220.877c5.274-13.107-1.126-28.006-14.285-33.28l-128-51.2c-3.123-1.229-6.349-1.843-9.523-1.843zM563.2 221.867c1.434 0 2.867-0.102 4.301-0.358 8.806-1.485 16.128-7.475 19.456-15.718l92.877-232.243 80.486 32.205-92.877 232.243c-3.174 7.885-2.202 16.845 2.56 23.859s12.698 11.264 21.197 11.264h189.798l-471.398 428.544v-641.997l134.349 153.549c4.915 5.581 11.93 8.755 19.251 8.755z" />
<glyph unicode="&#xe931;" glyph-name="smartphone" d="M537.6 17.067h-51.2c-14.131 0-25.6 11.469-25.6 25.6s11.469 25.6 25.6 25.6h51.2c14.131 0 25.6-11.469 25.6-25.6s-11.469-25.6-25.6-25.6zM742.4-85.333h-460.8c-42.342 0-76.8 34.458-76.8 76.8v870.4c0 42.342 34.458 76.8 76.8 76.8h460.8c42.342 0 76.8-34.458 76.8-76.8v-870.4c0-42.342-34.458-76.8-76.8-76.8zM281.6 887.467c-14.131 0-25.6-11.469-25.6-25.6v-870.4c0-14.131 11.469-25.6 25.6-25.6h460.8c14.131 0 25.6 11.469 25.6 25.6v870.4c0 14.131-11.469 25.6-25.6 25.6h-460.8zM691.2 119.467h-358.4c-14.131 0-25.6 11.469-25.6 25.6v665.6c0 14.131 11.469 25.6 25.6 25.6h358.4c14.131 0 25.6-11.469 25.6-25.6v-665.6c0-14.131-11.469-25.6-25.6-25.6zM358.4 170.667h307.2v614.4h-307.2v-614.4z" />
<glyph unicode="&#xe932;" glyph-name="star" d="M793.6-34.133c-4.198 0-8.397 1.024-12.237 3.123l-269.363 146.893-269.363-146.893c-8.602-4.71-19.098-4.045-27.085 1.638s-12.032 15.411-10.394 25.088l49.050 294.195-195.482 195.482c-6.758 6.758-9.216 16.794-6.298 25.907s10.701 15.872 20.173 17.459l294.349 49.050 122.163 244.326c4.352 8.653 13.21 14.131 22.886 14.131s18.586-5.478 22.886-14.131l122.163-244.326 294.349-49.050c9.472-1.587 17.254-8.294 20.173-17.459s0.512-19.149-6.298-25.907l-195.482-195.482 49.050-294.195c1.587-9.677-2.458-19.405-10.394-25.088-4.403-3.123-9.626-4.762-14.848-4.762zM512 170.667c4.198 0 8.448-1.024 12.237-3.123l235.469-128.41-42.547 255.334c-1.382 8.141 1.28 16.486 7.168 22.323l169.626 169.626-258.15 43.008c-8.090 1.331-15.002 6.502-18.688 13.824l-105.114 210.227-105.114-210.227c-3.686-7.322-10.598-12.442-18.688-13.824l-258.15-43.008 169.626-169.626c5.837-5.837 8.499-14.131 7.168-22.323l-42.547-255.334 235.469 128.41c3.84 2.099 8.038 3.123 12.237 3.123z" />
<glyph unicode="&#xe933;" glyph-name="store" d="M921.6 452.267v51.2c0 3.994-0.922 7.885-2.714 11.469l-102.4 204.8c-4.352 8.653-13.21 14.131-22.886 14.131h-614.4c-9.677 0-18.586-5.478-22.886-14.131l-102.4-204.8c-1.792-3.533-2.714-7.475-2.714-11.469v-51.2c0-41.779 20.122-78.95 51.2-102.349v-332.851h-25.6c-14.131 0-25.6-11.469-25.6-25.6s11.469-25.6 25.6-25.6h819.2c14.131 0 25.6 11.469 25.6 25.6s-11.469 25.6-25.6 25.6h-25.6v332.851c31.078 23.398 51.2 60.518 51.2 102.349zM588.8 375.467c-42.342 0-76.8 34.458-76.8 76.8v25.6h153.6v-25.6c0-42.342-34.458-76.8-76.8-76.8zM102.4 452.267v25.6h153.6v-25.6c0-42.342-34.458-76.8-76.8-76.8s-76.8 34.458-76.8 76.8zM460.8 682.667v-153.6h-146.432l38.4 153.6h108.032zM620.032 682.667l38.4-153.6h-146.432v153.6h108.032zM307.2 477.867h153.6v-25.6c0-42.342-34.458-76.8-76.8-76.8s-76.8 34.458-76.8 76.8v25.6zM716.8 477.867h153.6v-25.6c0-42.342-34.458-76.8-76.8-76.8s-76.8 34.458-76.8 76.8v25.6zM854.579 529.067h-143.411l-38.4 153.6h105.011l76.8-153.6zM195.021 682.667h105.011l-38.4-153.6h-143.411l76.8 153.6zM153.6 326.827c8.294-1.69 16.845-2.56 25.6-2.56 41.83 0 79.053 20.173 102.4 51.302 23.347-31.13 60.57-51.302 102.4-51.302s79.053 20.173 102.4 51.302c18.483-24.576 45.568-42.342 76.8-48.691v-309.76h-409.6v309.76zM819.2 17.067h-204.8v309.76c31.232 6.349 58.317 24.115 76.8 48.691 23.347-31.13 60.57-51.302 102.4-51.302 8.755 0 17.306 0.87 25.6 2.56v-309.76zM716.8 196.267c0-14.131-11.469-25.6-25.6-25.6s-25.6 11.469-25.6 25.6c0 14.131 11.469 25.6 25.6 25.6s25.6-11.469 25.6-25.6zM230.4 170.667c-6.554 0-13.107 2.509-18.125 7.475-9.984 9.984-9.984 26.214 0 36.198l51.2 51.2c9.984 9.984 26.214 9.984 36.198 0s9.984-26.214 0-36.198l-51.2-51.2c-5.018-5.018-11.571-7.475-18.125-7.475zM281.6 68.267c-6.554 0-13.107 2.509-18.125 7.475-9.984 9.984-9.984 26.214 0 36.198l153.6 153.6c9.984 9.984 26.214 9.984 36.198 0s9.984-26.214 0-36.198l-153.6-153.6c-5.018-5.018-11.571-7.475-18.125-7.475zM435.2 68.267c-6.554 0-13.107 2.509-18.125 7.475-9.984 9.984-9.984 26.214 0 36.198l51.2 51.2c9.984 9.984 26.214 9.984 36.198 0s9.984-26.214 0-36.198l-51.2-51.2c-5.018-5.018-11.571-7.475-18.125-7.475z" />
<glyph unicode="&#xe934;" glyph-name="sun" d="M486.4 171.025c-126.822 0-230.042 103.168-230.042 230.042s103.168 230.042 230.042 230.042 230.042-103.168 230.042-230.042-103.168-230.042-230.042-230.042zM486.4 579.909c-98.611 0-178.842-80.23-178.842-178.842s80.23-178.842 178.842-178.842 178.842 80.23 178.842 178.842-80.23 178.842-178.842 178.842zM486.4 682.667c-14.131 0-25.6 11.469-25.6 25.6v153.6c0 14.131 11.469 25.6 25.6 25.6s25.6-11.469 25.6-25.6v-153.6c0-14.131-11.469-25.6-25.6-25.6zM486.4-85.333c-14.131 0-25.6 11.469-25.6 25.6v153.6c0 14.131 11.469 25.6 25.6 25.6s25.6-11.469 25.6-25.6v-153.6c0-14.131-11.469-25.6-25.6-25.6zM179.2 375.467h-153.6c-14.131 0-25.6 11.469-25.6 25.6s11.469 25.6 25.6 25.6h153.6c14.131 0 25.6-11.469 25.6-25.6s-11.469-25.6-25.6-25.6zM947.2 375.467h-153.6c-14.131 0-25.6 11.469-25.6 25.6s11.469 25.6 25.6 25.6h153.6c14.131 0 25.6-11.469 25.6-25.6s-11.469-25.6-25.6-25.6zM230.4 631.467c-6.554 0-13.107 2.509-18.125 7.475l-102.4 102.4c-9.984 9.984-9.984 26.214 0 36.198s26.214 9.984 36.198 0l102.4-102.4c9.984-9.984 9.984-26.214 0-36.198-5.018-5.018-11.571-7.475-18.125-7.475zM128 17.067c-6.554 0-13.107 2.509-18.125 7.475-9.984 9.984-9.984 26.214 0 36.198l102.4 102.4c9.984 9.984 26.214 9.984 36.198 0s9.984-26.214 0-36.198l-102.4-102.4c-5.018-5.018-11.571-7.475-18.125-7.475zM844.8 17.067c-6.554 0-13.107 2.509-18.125 7.475l-102.4 102.4c-9.984 9.984-9.984 26.214 0 36.198s26.214 9.984 36.198 0l102.4-102.4c9.984-9.984 9.984-26.214 0-36.198-5.018-5.018-11.571-7.475-18.125-7.475zM742.4 631.467c-6.554 0-13.107 2.509-18.125 7.475-9.984 9.984-9.984 26.214 0 36.198l102.4 102.4c9.984 9.984 26.214 9.984 36.198 0s9.984-26.214 0-36.198l-102.4-102.4c-5.018-5.018-11.571-7.475-18.125-7.475z" />
<glyph unicode="&#xe935;" glyph-name="sync" d="M1016.525 495.992c-9.984 9.984-26.214 9.984-36.198 0l-58.829-58.829c-2.611 105.472-44.954 204.288-119.859 279.142-77.363 77.363-180.224 119.962-289.638 119.962-152.269 0-291.123-83.712-362.342-218.419-6.605-12.493-1.843-28.006 10.65-34.611s28.006-1.843 34.611 10.65c62.31 117.914 183.808 191.181 317.082 191.181 193.997 0 352.512-154.982 358.246-347.597l-58.522 58.522c-9.984 9.984-26.214 9.984-36.198 0s-9.984-26.214 0-36.198l102.4-102.4c5.018-5.018 11.571-7.475 18.125-7.475s13.107 2.509 18.125 7.475l102.4 102.4c9.984 9.984 9.984 26.214 0 36.198zM863.693 270.097c-12.493 6.605-28.006 1.843-34.611-10.65-62.31-117.914-183.808-191.181-317.082-191.181-193.997 0-352.512 154.982-358.246 347.597l58.522-58.522c5.018-5.018 11.571-7.475 18.125-7.475s13.107 2.509 18.125 7.475c9.984 9.984 9.984 26.214 0 36.198l-102.4 102.4c-9.984 9.984-26.214 9.984-36.198 0l-102.4-102.4c-9.984-9.984-9.984-26.214 0-36.198s26.214-9.984 36.198 0l58.829 58.829c2.611-105.472 44.954-204.288 119.859-279.142 77.363-77.363 180.224-119.962 289.638-119.962 152.269 0 291.123 83.712 362.342 218.419 6.605 12.493 1.843 28.006-10.65 34.611z" />
<glyph unicode="&#xe936;" glyph-name="tablet" d="M844.8-85.333h-665.6c-42.342 0-76.8 34.458-76.8 76.8v870.4c0 42.342 34.458 76.8 76.8 76.8h665.6c42.342 0 76.8-34.458 76.8-76.8v-870.4c0-42.342-34.458-76.8-76.8-76.8zM179.2 887.467c-14.131 0-25.6-11.469-25.6-25.6v-870.4c0-14.131 11.469-25.6 25.6-25.6h665.6c14.131 0 25.6 11.469 25.6 25.6v870.4c0 14.131-11.469 25.6-25.6 25.6h-665.6zM537.6 17.067h-51.2c-14.131 0-25.6 11.469-25.6 25.6s11.469 25.6 25.6 25.6h51.2c14.131 0 25.6-11.469 25.6-25.6s-11.469-25.6-25.6-25.6zM793.6 119.467h-563.2c-14.131 0-25.6 11.469-25.6 25.6v665.6c0 14.131 11.469 25.6 25.6 25.6h563.2c14.131 0 25.6-11.469 25.6-25.6v-665.6c0-14.131-11.469-25.6-25.6-25.6zM256 170.667h512v614.4h-512v-614.4z" />
<glyph unicode="&#xe937;" glyph-name="tag" d="M384-38.485c-20.531 0-39.834 7.987-54.323 22.426l-260.403 260.403c-14.49 14.49-22.426 33.741-22.426 54.323s7.987 39.834 22.426 54.323l439.603 439.603c24.934 24.934 70.246 43.725 105.523 43.725h230.4c42.342 0 76.8-34.458 76.8-76.8v-230.4c0-35.226-18.79-80.589-43.674-105.523l-439.603-439.603c-14.49-14.49-33.741-22.426-54.323-22.426zM614.4 785.067c-21.248 0-54.272-13.67-69.274-28.723l-439.603-439.603c-4.813-4.813-7.424-11.213-7.424-18.125s2.662-13.312 7.424-18.074l260.403-260.403c4.813-4.813 11.213-7.424 18.125-7.424s13.312 2.662 18.125 7.424l439.603 439.603c15.002 15.002 28.723 48.077 28.723 69.325v230.4c0 14.131-11.469 25.6-25.6 25.6h-230.4zM742.4 580.267c-42.342 0-76.8 34.458-76.8 76.8s34.458 76.8 76.8 76.8 76.8-34.458 76.8-76.8-34.458-76.8-76.8-76.8zM742.4 682.667c-14.131 0-25.6-11.469-25.6-25.6s11.469-25.6 25.6-25.6 25.6 11.469 25.6 25.6-11.469 25.6-25.6 25.6z" />
<glyph unicode="&#xe938;" glyph-name="trash" d="M793.6 836.267h-179.2v25.6c0 42.342-34.458 76.8-76.8 76.8h-102.4c-42.342 0-76.8-34.458-76.8-76.8v-25.6h-179.2c-42.342 0-76.8-34.458-76.8-76.8v-51.2c0-33.382 21.402-61.85 51.2-72.397v-644.403c0-42.342 34.458-76.8 76.8-76.8h512c42.342 0 76.8 34.458 76.8 76.8v644.403c29.798 10.547 51.2 39.014 51.2 72.397v51.2c0 42.342-34.458 76.8-76.8 76.8zM409.6 861.867c0 14.131 11.469 25.6 25.6 25.6h102.4c14.131 0 25.6-11.469 25.6-25.6v-25.6h-153.6v25.6zM742.4-34.133h-512c-14.131 0-25.6 11.469-25.6 25.6v640h563.2v-640c0-14.131-11.469-25.6-25.6-25.6zM819.2 708.267c0-14.131-11.469-25.6-25.6-25.6h-614.4c-14.131 0-25.6 11.469-25.6 25.6v51.2c0 14.131 11.469 25.6 25.6 25.6h614.4c14.131 0 25.6-11.469 25.6-25.6v-51.2zM640 580.267c-14.131 0-25.6-11.469-25.6-25.6v-512c0-14.131 11.469-25.6 25.6-25.6s25.6 11.469 25.6 25.6v512c0 14.131-11.469 25.6-25.6 25.6zM486.4 580.267c-14.131 0-25.6-11.469-25.6-25.6v-512c0-14.131 11.469-25.6 25.6-25.6s25.6 11.469 25.6 25.6v512c0 14.131-11.469 25.6-25.6 25.6zM332.8 580.267c-14.131 0-25.6-11.469-25.6-25.6v-512c0-14.131 11.469-25.6 25.6-25.6s25.6 11.469 25.6 25.6v512c0 14.131-11.469 25.6-25.6 25.6z" />
<glyph unicode="&#xe939;" glyph-name="user" d="M486.4 375.467c-155.29 0-281.6 126.31-281.6 281.6s126.31 281.6 281.6 281.6 281.6-126.31 281.6-281.6-126.31-281.6-281.6-281.6zM486.4 887.467c-127.027 0-230.4-103.373-230.4-230.4s103.373-230.4 230.4-230.4c127.027 0 230.4 103.373 230.4 230.4s-103.373 230.4-230.4 230.4zM896-85.333h-819.2c-42.342 0-76.8 34.458-76.8 76.8 0 3.482 0.717 86.272 62.72 168.96 36.096 48.128 85.504 86.374 146.893 113.613 74.957 33.331 168.090 50.227 276.787 50.227s201.83-16.896 276.787-50.227c61.389-27.29 110.797-65.485 146.893-113.613 62.003-82.688 62.72-165.478 62.72-168.96 0-42.342-34.458-76.8-76.8-76.8zM486.4 273.067c-178.534 0-310.272-48.794-380.979-141.107-52.992-69.171-54.17-139.878-54.221-140.595 0-14.029 11.469-25.498 25.6-25.498h819.2c14.131 0 25.6 11.469 25.6 25.6 0 0.614-1.178 71.322-54.221 140.493-70.758 92.314-202.496 141.107-380.979 141.107z" />
<glyph unicode="&#xe93a;" glyph-name="users" d="M947.2 17.067h-563.2c-42.342 0-76.8 34.458-76.8 76.8 0 2.458 0.563 60.928 47.309 118.528 26.88 33.075 63.539 59.29 108.954 77.926 54.835 22.528 122.88 33.894 202.138 33.894s147.251-11.418 202.138-33.894c45.414-18.637 82.074-44.851 108.954-77.926 46.797-57.6 47.309-116.070 47.309-118.528 0-42.342-34.458-76.8-76.8-76.8zM358.4 93.713c0.051-14.080 11.52-25.446 25.6-25.446h563.2c14.080 0 25.549 11.418 25.6 25.446-0.051 1.792-1.638 45.824-37.837 88.781-49.869 59.238-143.002 90.522-269.363 90.522s-219.494-31.334-269.363-90.522c-36.198-43.008-37.786-86.989-37.837-88.781zM665.6 375.467c-112.947 0-204.8 91.853-204.8 204.8s91.853 204.8 204.8 204.8 204.8-91.853 204.8-204.8c0-112.947-91.853-204.8-204.8-204.8zM665.6 733.867c-84.685 0-153.6-68.915-153.6-153.6s68.915-153.6 153.6-153.6 153.6 68.915 153.6 153.6-68.915 153.6-153.6 153.6zM230.4 17.067h-153.6c-42.342 0-76.8 34.458-76.8 76.8 0 1.894 0.41 47.462 33.946 92.16 19.354 25.856 45.773 46.285 78.49 60.826 39.117 17.408 87.45 26.214 143.616 26.214 9.165 0 18.227-0.256 26.982-0.717 14.131-0.768 24.934-12.8 24.218-26.931s-12.8-24.986-26.931-24.218c-7.834 0.41-15.974 0.614-24.218 0.614-199.373 0-204.646-121.805-204.8-128.154 0.051-14.029 11.52-25.446 25.6-25.446h153.6c14.131 0 25.6-11.469 25.6-25.6s-11.469-25.6-25.6-25.6zM256 324.267c-84.685 0-153.6 68.915-153.6 153.6s68.915 153.6 153.6 153.6 153.6-68.915 153.6-153.6-68.915-153.6-153.6-153.6zM256 580.267c-56.474 0-102.4-45.926-102.4-102.4s45.926-102.4 102.4-102.4 102.4 45.926 102.4 102.4c0 56.474-45.926 102.4-102.4 102.4z" />
<glyph unicode="&#xe93b;" glyph-name="warning" d="M947.2-34.133h-921.6c-9.114 0-17.51 4.813-22.118 12.698s-4.659 17.562-0.205 25.498l460.8 819.2c4.557 8.038 13.056 13.056 22.323 13.056s17.766-4.966 22.323-13.056l460.8-819.2c4.454-7.936 4.352-17.613-0.205-25.498s-13.005-12.698-22.118-12.698zM69.376 17.067h834.048l-417.024 741.376-417.024-741.376zM486.4 221.867c-14.131 0-25.6 11.469-25.6 25.6v256c0 14.131 11.469 25.6 25.6 25.6s25.6-11.469 25.6-25.6v-256c0-14.131-11.469-25.6-25.6-25.6zM486.4 68.267c-14.131 0-25.6 11.469-25.6 25.6v51.2c0 14.131 11.469 25.6 25.6 25.6s25.6-11.469 25.6-25.6v-51.2c0-14.131-11.469-25.6-25.6-25.6z" />
<glyph unicode="&#xe93c;" glyph-name="mail-envelope" d="M192.115 704h671.77c35.643 0 64.115-28.569 64.115-63.81v-384.38c0-35.185-28.705-63.81-64.115-63.81h-671.77c-35.643 0-64.115 28.569-64.115 63.81v384.38c0 35.185 28.705 63.81 64.115 63.81zM192.098 672c-17.727 0-32.098-14.398-32.098-32.219v-383.562c0-17.794 14.045-32.219 32.098-32.219h671.803c17.727 0 32.098 14.398 32.098 32.219v383.562c0 17.794-14.045 32.219-32.098 32.219h-671.803zM736 608h96v-96h-96v96zM768 576v-32h32v32h-32zM224 384v-32h256v32h-256zM224 608v-32h128v32h-128zM224 320v-32h256v32h-256z" />
<glyph unicode="&#xe93d;" glyph-name="mail-envelope-closed" d="M170.080 663.235l247.52-215.235-247.581-215.287c-6.206 5.878-10.019 14.235-10.019 23.507v383.562c0 9.253 3.874 17.582 10.080 23.454zM885.981 663.287c6.206-5.878 10.019-14.235 10.019-23.507v-383.562c0-9.252-3.874-17.582-10.080-23.454l-247.52 215.235 247.581 215.287zM614.459 427.181l233.541-203.181h-640l233.541 203.181 86.459-75.181 86.459 75.181zM192.115 704c-35.41 0-64.115-28.624-64.115-63.81v-384.38c0-35.241 28.472-63.81 64.115-63.81h671.77c35.41 0 64.115 28.624 64.115 63.81v384.38c0 35.241-28.472 63.81-64.115 63.81h-671.77zM528 393.6l-320 278.4h640l-320-278.4z" />
<glyph unicode="&#xe93e;" glyph-name="flag" d="M256 688v176h512l-176-176 176-176h-480v-480h-32v656zM288 832v-288h400l-144 144 144 144h-400z" />
<glyph unicode="&#xe93f;" glyph-name="key" d="M593.037 337.037l-145.037-145.037h-96v-96h-96v-96h-160v160l337.037 337.037c-11.016 29.564-17.037 61.56-17.037 94.963 0 150.221 121.779 272 272 272s272-121.779 272-272c0-150.221-121.779-272-272-272-33.403 0-65.399 6.021-94.963 17.037v0 0zM447.96 463.96l-319.96-319.96v-112h96v96h96v96h112l127.96 127.96c-47.513 25.397-86.603 64.487-112 112v0 0zM928 592c0 132.548-107.452 240-240 240s-240-107.452-240-240c0-132.548 107.452-240 240-240s240 107.452 240 240v0 0zM864 672v0 0c0-53.019-42.981-96-96-96s-96 42.981-96 96c0 53.019 42.981 96 96 96s96-42.981 96-96zM832 672c0 35.346-28.654 64-64 64s-64-28.654-64-64c0-35.346 28.654-64 64-64s64 28.654 64 64v0 0z" />
<glyph unicode="&#xe940;" glyph-name="icomoon-file" d="M917.806 730.924c-22.212 30.292-53.174 65.7-87.178 99.704s-69.412 64.964-99.704 87.178c-51.574 37.82-76.592 42.194-90.924 42.194h-496c-44.112 0-80-35.888-80-80v-864c0-44.112 35.888-80 80-80h736c44.112 0 80 35.888 80 80v624c0 14.332-4.372 39.35-42.194 90.924zM785.374 785.374c30.7-30.7 54.8-58.398 72.58-81.374h-153.954v153.946c22.984-17.78 50.678-41.878 81.374-72.572zM896 16c0-8.672-7.328-16-16-16h-736c-8.672 0-16 7.328-16 16v864c0 8.672 7.328 16 16 16 0 0 495.956 0.002 496 0v-224c0-17.672 14.326-32 32-32h224v-624z" />
<glyph unicode="&#xe941;" glyph-name="icomoon-stack" d="M1024 640l-512 256-512-256 512-256 512 256zM512 811.030l342.058-171.030-342.058-171.030-342.058 171.030 342.058 171.030zM921.444 499.278l102.556-51.278-512-256-512 256 102.556 51.278 409.444-204.722zM921.444 307.278l102.556-51.278-512-256-512 256 102.556 51.278 409.444-204.722z" />
<glyph unicode="&#xe942;" glyph-name="lock" d="M742.4 529.067h-25.6v76.8c0 127.027-103.373 230.4-230.4 230.4s-230.4-103.373-230.4-230.4v-76.8h-25.6c-42.342 0-76.8-34.458-76.8-76.8v-409.6c0-42.342 34.458-76.8 76.8-76.8h512c42.342 0 76.8 34.458 76.8 76.8v409.6c0 42.342-34.458 76.8-76.8 76.8zM307.2 605.867c0 98.816 80.384 179.2 179.2 179.2s179.2-80.384 179.2-179.2v-76.8h-358.4v76.8zM768 42.667c0-14.131-11.469-25.6-25.6-25.6h-512c-14.131 0-25.6 11.469-25.6 25.6v409.6c0 14.131 11.469 25.6 25.6 25.6h512c14.131 0 25.6-11.469 25.6-25.6v-409.6z" />
<glyph unicode="&#xe943;" glyph-name="icomoon-folder" d="M448 832l128-128h448v-704h-1024v832z" />
<glyph unicode="&#xe944;" glyph-name="wallet, money" horiz-adv-x="1216" d="M1040.288 720c8.832 0 16 7.168 16 16v53.28c0 28.896-23.52 52.416-52.416 52.416h-85.984l-19.616 57.888c-2.752 8.16-11.52 12.704-19.808 10.176l-465.696-141.568c-8.448-2.592-13.216-11.52-10.656-19.968 2.112-6.912 8.448-11.328 15.328-11.328 1.536 0 3.104 0.224 4.672 0.672l450.848 137.088 42.976-126.88c2.848-8.384 12-12.928 20.288-10.016 8.384 2.816 12.864 11.936 10.016 20.288l-17.504 51.68h75.168c11.264 0 20.416-9.152 20.416-20.416v-53.312c-0.032-8.832 7.136-16 15.968-16zM1168 480c-8.832 0-16-7.168-16-16s7.168-16 16-16c11.232 0 16-4.768 16-16v-192c0-11.232-4.768-16-16-16h-256c-11.232 0-16 4.768-16 16v160c0 11.232 4.768 16 16 16h192c8.832 0 16 7.168 16 16v192c0 29.152-18.848 48-48 48h-976c-39.456 0-64 24.544-64 64s24.544 64 64 64h162.432l-96.832-31.936c-8.384-2.752-12.96-11.808-10.208-20.192 2.208-6.72 8.48-10.976 15.2-10.976 1.664 0 3.328 0.256 5.024 0.8l579.808 191.136c8.384 2.784 12.96 11.808 10.176 20.224-2.752 8.384-11.808 12.96-20.224 10.176l-387.2-127.68c-0.736 0.128-1.408 0.448-2.176 0.448h-256c-57.408 0-96-38.592-96-96v-704c0-57.408 38.592-96 96-96h976c29.152 0 48 18.848 48 48v160c0 8.832-7.168 16-16 16s-16-7.168-16-16v-160c0-11.232-4.768-16-16-16h-976c-39.456 0-64 24.544-64 64v630.016c16.416-13.856 38.144-22.016 64-22.016h976c11.232 0 16-4.768 16-16v-176h-176c-29.152 0-48-18.848-48-48v-160c0-29.152 18.848-48 48-48h256c29.152 0 48 18.848 48 48v192c0 29.152-18.848 48-48 48zM992 320c0-17.673 14.327-32 32-32s32 14.327 32 32c0 17.673-14.327 32-32 32s-32-14.327-32-32z" />
<glyph unicode="&#xe945;" glyph-name="link" d="M546.918 273.169c-48.282 0-96.563 18.381-133.325 55.142-9.984 9.984-9.984 26.214 0 36.198s26.214 9.984 36.198 0c53.555-53.555 140.646-53.555 194.202 0l186.163 186.163c53.555 53.555 53.555 140.646 0 194.202s-140.646 53.555-194.202 0l-157.082-157.082c-9.984-9.984-26.214-9.984-36.198 0s-9.984 26.214 0 36.198l157.082 157.082c73.523 73.523 193.126 73.523 266.598 0s73.523-193.126 0-266.598l-186.163-186.163c-36.762-36.762-85.043-55.142-133.325-55.142zM239.718-34.031c-48.282 0-96.563 18.381-133.325 55.142-73.523 73.523-73.523 193.126 0 266.598l186.163 186.163c73.523 73.523 193.126 73.523 266.598 0 9.984-9.984 9.984-26.214 0-36.198s-26.214-9.984-36.198 0c-53.555 53.555-140.646 53.555-194.202 0l-186.163-186.163c-53.555-53.555-53.555-140.646 0-194.202s140.646-53.555 194.202 0l157.082 157.082c9.984 9.984 26.214 9.984 36.198 0s9.984-26.214 0-36.198l-157.082-157.082c-36.762-36.762-85.043-55.142-133.325-55.142z" />
<glyph unicode="&#xe946;" glyph-name="sc" horiz-adv-x="1025" d="M1008.689 258.663c0 13.314-2.829 32.452-3.162 35.115-6.49 73.725-37.944 140.794-94.195 197.045-17.641 17.641-36.946 32.785-57.249 45.6-94.695 59.413-213.354 65.571-313.041 18.639 0 0-0.166 0.166-0.166 0.166-52.922-23.965-116.662-15.477-161.929 25.13-1.997 1.831-3.994 3.661-5.991 5.658l-200.872 201.039c0 0-0.166 0.166-0.166 0.166-13.48 14.978-18.972 34.45-16.975 53.255 0 0-0.166 0-0.166 0 0.832 4.161 1.165 8.321 1.165 12.648 0.166 38.111-30.622 68.899-68.733 68.899s-68.733-30.788-68.733-68.733c0-37.944 30.788-68.733 68.733-68.733 4.327 0 8.654 0.499 12.815 1.165 0 0 0-0.166 0-0.166 18.806 2.163 38.61-3.162 53.588-16.642 0 0 0.166-0.166 0.166-0.166l201.871-201.871c1.664-1.664 2.996-3.495 4.493-5.326 40.607-45.267 48.928-109.173 24.963-162.262 0 0 0.166-0.166 0.166-0.166-46.931-99.521-40.774-218.18 18.639-312.875 12.815-20.304 27.793-39.609 45.6-57.249 56.251-56.251 130.975-89.702 204.7-96.192 19.305-1.664 294.402-0.666 294.402-0.666 14.978 0 30.289 7.323 40.774 17.974 10.485 10.485 19.305 27.293 19.305 42.271 0-0.166 0 252.963 0 266.277zM879.878 121.198c0-14.978-6.657-32.452-17.142-42.937s-28.125-17.142-42.937-17.142h-131.141c-2.496 0-33.285 0.333-61.576 8.155-31.62 8.654-61.576 25.962-86.373 50.759-77.054 77.054-77.054 202.703 0 279.757s203.036 77.054 280.090 0c24.797-24.797 44.435-54.087 51.092-86.373 7.655-37.944 8.155-54.753 8.155-57.249v-134.969z" />
<glyph unicode="&#xe947;" glyph-name="icomoon-folder-plus" d="M576 704l-128 128h-448v-832h1024v704h-448zM704 256h-128v-128h-128v128h-128v128h128v128h128v-128h128v-128z" />
<glyph unicode="&#xe948;" glyph-name="icomoon-folder-upload" d="M576 704l-128 128h-448v-832h1024v704h-448zM512 480l224-224h-160v-256h-128v256h-160l224 224z" />
<glyph unicode="&#xe981;" glyph-name="icomoon-spinner" d="M512-64c-136.76 0-265.334 53.258-362.040 149.96-96.702 96.706-149.96 225.28-149.96 362.040 0 96.838 27.182 191.134 78.606 272.692 50 79.296 120.664 143.372 204.356 185.3l43-85.832c-68.038-34.084-125.492-86.186-166.15-150.67-41.746-66.208-63.812-142.798-63.812-221.49 0-229.382 186.618-416 416-416s416 186.618 416 416c0 78.692-22.066 155.282-63.81 221.49-40.66 64.484-98.114 116.584-166.15 150.67l43 85.832c83.692-41.928 154.358-106.004 204.356-185.3 51.422-81.558 78.604-175.854 78.604-272.692 0-136.76-53.258-265.334-149.96-362.040-96.706-96.702-225.28-149.96-362.040-149.96z" />
<glyph unicode="&#xe986;" glyph-name="cart" d="M409.6-85.333c-56.474 0-102.4 45.926-102.4 102.4s45.926 102.4 102.4 102.4 102.4-45.926 102.4-102.4-45.926-102.4-102.4-102.4zM409.6 68.267c-28.211 0-51.2-22.989-51.2-51.2s22.989-51.2 51.2-51.2 51.2 22.989 51.2 51.2-22.989 51.2-51.2 51.2zM768-85.333c-56.474 0-102.4 45.926-102.4 102.4s45.926 102.4 102.4 102.4 102.4-45.926 102.4-102.4-45.926-102.4-102.4-102.4zM768 68.267c-28.211 0-51.2-22.989-51.2-51.2s22.989-51.2 51.2-51.2 51.2 22.989 51.2 51.2-22.989 51.2-51.2 51.2zM897.997 709.957c-12.851 15.206-32.256 23.91-53.197 23.91h-626.842l-5.069 30.515c-6.707 40.294-43.981 71.885-84.89 71.885h-51.2c-14.131 0-25.6-11.469-25.6-25.6s11.469-25.6 25.6-25.6h51.2c15.718 0 31.795-13.619 34.355-29.133l85.555-513.382c6.707-40.294 43.981-71.885 84.89-71.885h512c14.131 0 25.6 11.469 25.6 25.6s-11.469 25.6-25.6 25.6h-512c-15.718 0-31.795 13.619-34.355 29.133l-12.646 75.776 510.208 44.39c39.68 3.43 75.93 36.915 82.483 76.237l34.355 206.182c3.43 20.685-1.946 41.267-14.797 56.422zM862.31 661.982l-34.355-206.182c-2.714-16.179-20.019-32.205-36.403-33.638l-514.202-44.698-50.893 305.254h618.291c5.99 0 11.008-2.048 14.131-5.786s4.352-9.011 3.379-14.899z" />
<glyph unicode="&#xe987;" glyph-name="cloud" d="M195.232 444.731c-56.845-13.107-99.232-64.079-99.232-124.731 0-70.692 57.534-128 128.090-128h543.82c70.742 0 128.090 57.451 128.090 128 0 59.775-41.136 109.981-96.498 124.062v0c-6.127 73.885-68.035 131.938-143.502 131.938-34.439 0-66.055-12.090-90.834-32.257-26.285 74.707-97.471 128.257-181.166 128.257-106.039 0-192-85.961-192-192 0-12.048 1.11-23.836 3.232-35.269v0zM828.252 468.304c58.574-23.776 99.748-81.218 99.748-148.304 0-88.186-71.626-160-159.982-160h-544.036c-88.542 0-159.982 71.634-159.982 160 0 65.628 39.669 122.189 96.381 146.831v0c-0.253 4.357-0.381 8.748-0.381 13.169 0 123.712 100.288 224 224 224 83.608 0 156.518-45.806 195.002-113.692 23.258 11.333 49.385 17.692 76.998 17.692 84.757 0 155.521-59.912 172.252-139.696v0 0z" />
<glyph unicode="&#xe988;" glyph-name="stars" d="M408.32 459.52l-40.32-107.52-40.32 107.52-71.68 20.48 71.68 20.48 40.32 107.52 40.32-107.52 71.68-20.48-71.68-20.48zM726.857 664.381l-38.857 103.619-38.857-103.619-73.143-24.381 73.143-24.381 38.857-103.619 38.857 103.619 73.143 24.381-73.143 24.381zM662.857 280.381l-38.857 103.619-38.857-103.619-73.143-24.381 73.143-24.381 38.857-103.619 38.857 103.619 73.143 24.381-73.143 24.381zM430.703 528.432l-62.703 175.568-62.703-175.568-145.297-48.432 145.297-48.432 62.703-175.568 62.703 175.568 145.297 48.432-145.297 48.432z" />
<glyph unicode="&#xe989;" glyph-name="camera-video" d="M979.507 65.553c0 0 0 0 0 0-12.39 0-24.832 4.966-37.069 14.746l-176.026 140.851c-28.262 22.63-49.613 66.97-49.613 103.168v153.6c0 36.198 21.299 80.538 49.613 103.168l176.026 140.851c12.237 9.779 24.678 14.746 37.069 14.746 22.17 0 44.493-16.691 44.493-53.914v-563.2c0-14.234-3.277-26.214-9.728-35.533-8.038-11.674-20.736-18.381-34.765-18.381zM972.8 680.619l-174.438-139.52c-15.872-12.698-30.362-42.854-30.362-63.181v-153.6c0-20.378 14.49-50.483 30.362-63.181l174.438-139.52v559.053zM588.8 68.267h-512c-42.342 0-76.8 34.458-76.8 76.8v512c0 42.342 34.458 76.8 76.8 76.8h512c42.342 0 76.8-34.458 76.8-76.8v-512c0-42.342-34.458-76.8-76.8-76.8zM76.8 682.667c-14.131 0-25.6-11.469-25.6-25.6v-512c0-14.131 11.469-25.6 25.6-25.6h512c14.131 0 25.6 11.469 25.6 25.6v512c0 14.131-11.469 25.6-25.6 25.6h-512z" />
<glyph unicode="&#xe98a;" glyph-name="money-bag" d="M608.522 654.761c-6.096 7.11-12.008 14.006-17.674 20.662 13.658 8.99 22.696 24.448 22.696 41.984 0 20.492-12.34 38.148-29.974 45.954l46.4 154.666c1.456 4.854 0.532 10.112-2.494 14.178-3.024 4.066-7.794 6.462-12.862 6.462-17.688 0-27.44-6.496-34.564-11.24-5.674-3.78-8.802-5.862-16.788-5.862s-11.112 2.082-16.788 5.862c-7.12 4.744-16.874 11.24-34.564 11.24-17.676 0-27.42-6.5-34.532-11.246-5.658-3.776-8.776-5.856-16.736-5.856-7.954 0-11.072 2.080-16.728 5.854-7.112 4.748-16.854 11.248-34.528 11.248-5.068 0-9.838-2.396-12.864-6.462-3.028-4.066-3.95-9.322-2.494-14.178l46.4-154.666c-17.634-7.806-29.974-25.462-29.974-45.954 0-17.536 9.038-32.994 22.694-41.984-5.666-6.654-11.576-13.552-17.674-20.662-90.53-105.604-227.348-265.192-227.348-416.22 0-178.584 145.288-323.874 323.874-323.874s323.874 145.29 323.874 323.874c0 151.028-136.818 310.616-227.352 416.22zM434.18 895.783c6.32-3.358 14.606-6.286 26.462-6.286 17.676 0 27.42 6.5 34.534 11.246 5.658 3.778 8.776 5.856 16.736 5.856 7.986 0 11.112-2.082 16.788-5.862 7.12-4.744 16.876-11.24 34.564-11.24 11.918 0 20.234 2.948 26.568 6.324l-38.454-128.178h-23.344v52.376c0 8.854-7.178 16.034-16.034 16.034-8.854 0-16.034-7.178-16.034-16.034v-52.376h-23.344l-38.442 128.14zM581.478 717.407c0-10.020-8.152-18.172-18.172-18.172h-0.074c-0.008 0-0.014 0-0.022 0h-102.518c-10.020 0-18.172 8.152-18.172 18.172s8.152 18.172 18.172 18.172h102.562c0.020 0 0.038-0.004 0.058-0.004 0.010 0 0.020 0.002 0.030 0.002 10.004-0.022 18.136-8.162 18.136-18.17zM512-53.267c-160.904 0-291.808 130.904-291.808 291.808 0 139.164 132.17 293.332 219.63 395.348 10.040 11.71 19.558 22.828 28.348 33.28h27.798v-18.172c0-8.854 7.178-16.034 16.034-16.034 8.854 0 16.034 7.178 16.034 16.034v18.172h27.798c8.786-10.452 18.308-21.57 28.348-33.28 87.46-102.016 219.63-256.184 219.63-395.348-0.004-160.904-130.908-291.808-291.812-291.808zM562.238 264.129v119.91c20.934-8.384 36.342-21.79 36.342-38.074 0-8.854 7.178-16.034 16.034-16.034s16.034 7.178 16.034 16.034c0 32.528-27.672 59.906-68.41 72.384v25.42c0 8.854-7.178 16.034-16.034 16.034s-16.034-7.178-16.034-16.034v-19.062c-5.914 0.586-11.978 0.892-18.172 0.892s-12.258-0.306-18.172-0.892v19.062c0 8.854-7.178 16.034-16.034 16.034s-16.034-7.178-16.034-16.034v-25.42c-40.738-12.478-68.41-39.854-68.41-72.384 0-43.048 29.128-65.684 68.41-81.704v-119.91c-20.934 8.384-36.342 21.79-36.342 38.074 0 8.854-7.178 16.034-16.034 16.034s-16.034-7.178-16.034-16.034c0-32.528 27.672-59.906 68.41-72.384v-25.42c0-8.854 7.178-16.034 16.034-16.034s16.034 7.178 16.034 16.034v19.062c5.914-0.586 11.978-0.892 18.172-0.892s12.258 0.306 18.172 0.892v-19.062c0-8.854 7.178-16.034 16.034-16.034s16.034 7.178 16.034 16.034v25.42c40.738 12.478 68.41 39.854 68.41 72.384 0 43.048-29.128 65.684-68.41 81.704zM461.762 299.439c-26.61 12.954-36.342 26.718-36.342 46.526 0 16.284 15.41 29.69 36.342 38.074v-84.6zM530.172 136.097c-6.052-0.806-12.162-1.238-18.172-1.238s-12.12 0.432-18.172 1.238v116.858c4.496-1.406 9.042-2.782 13.632-4.136 8.228-2.428 15.772-4.798 22.71-7.136v-105.586zM530.172 275.435c-4.496 1.406-9.042 2.782-13.632 4.136-8.228 2.428-15.772 4.798-22.71 7.136v105.586c6.052 0.806 12.162 1.238 18.172 1.238s12.12-0.432 18.172-1.238v-116.858zM562.238 144.351v84.6c26.61-12.956 36.342-26.718 36.342-46.526 0-16.284-15.408-29.69-36.342-38.074z" />
<glyph unicode="&#xe98b;" glyph-name="safebox" d="M899.26 938.667h-774.564c-52.896 0-95.942-43.061-95.942-95.957v-719.736c0-52.896 43.046-95.957 95.942-95.957h14.798c-0.732-4.596-1.142-9.133-1.142-13.656v-18.266c0-44.349 30.254-80.428 67.416-80.428h37.001c37.162 0 67.401 36.079 67.401 80.428v18.266c0 4.523-0.424 9.045-1.142 13.656h414.14c-0.717-4.581-1.127-9.119-1.127-13.656v-18.266c0-44.349 30.239-80.428 67.401-80.428h37.001c37.162 0 67.416 36.079 67.416 80.428v18.266c0 4.523-0.424 9.045-1.142 13.656h6.572c52.896 0 95.957 43.061 95.957 95.957v719.736c-0.029 52.896-43.090 95.957-95.986 95.957zM242.769-61.49h-37.001c-23.623 0-43.573 25.921-43.573 56.585v18.266c0 3.571 0.307 7.187 0.951 10.919h122.23c0.629-3.732 0.951-7.333 0.951-10.919v-18.266c0-30.678-19.95-56.585-43.558-56.585zM870.002-4.905v0c0-30.678-19.964-56.585-43.573-56.585h-37.001c-23.623 0-43.558 25.921-43.558 56.585v18.266c0 3.601 0.307 7.201 0.937 10.919h122.244c0.629-3.732 0.951-7.333 0.951-10.919v-18.266zM971.389 122.974h-0.015c0-39.767-32.347-72.129-72.129-72.129h-774.55c-39.767 0-72.114 32.347-72.114 72.129v719.736c0 39.767 32.347 72.129 72.114 72.129h774.564c39.767 0 72.129-32.347 72.129-72.129v-719.736zM246.867 140.435h-73.871v664.381c0 4.611-3.732 8.343-8.343 8.343s-8.343-3.732-8.343-8.343v-38.245h-42.636c-4.611 0-8.343-3.718-8.343-8.343v-131.509c0-4.611 3.718-8.343 8.343-8.343h42.636v-238.165h-42.636c-4.611 0-8.343-3.718-8.343-8.343v-131.538c0-4.611 3.718-8.343 8.343-8.343h42.636v-99.894c0-4.611 3.718-8.343 8.343-8.343h82.213c4.611 0 8.343 3.732 8.343 8.343 0 4.625-3.732 8.343-8.343 8.343zM155.52 635.047h-33.518v114.853h33.518v-114.853zM155.52 248.658h-33.518v114.867h33.518v-114.867zM898.338 494.61c-4.611 0-8.343-3.732-8.343-8.343v-345.832h-565.028c-4.611 0-8.343-3.732-8.343-8.343s3.732-8.343 8.343-8.343h573.371c4.611 0 8.343 3.732 8.343 8.343v354.174c0 4.611-3.732 8.343-8.343 8.343zM889.995 640.404c0-4.611 3.732-8.343 8.343-8.343s8.343 3.718 8.343 8.343v201.984c0 4.625-3.732 8.343-8.343 8.343h-639.147c-4.611 0-8.343-3.732-8.343-8.343s3.732-8.343 8.343-8.343h630.805v-193.641zM815.788 258.845c-21.062 0-38.187-17.139-38.187-38.201s17.139-38.201 38.187-38.201c21.077 0 38.201 17.139 38.201 38.201s-17.139 38.201-38.201 38.201zM794.404 220.658c0 11.782 9.602 21.384 21.384 21.384 2.81 0 5.459-0.615 7.918-1.595l-27.707-27.707c-0.981 2.459-1.595 5.108-1.595 7.918zM815.803 199.245c-2.796 0-5.445 0.615-7.904 1.595l27.707 27.707c0.981-2.444 1.595-5.094 1.595-7.904 0-11.797-9.602-21.399-21.399-21.399zM815.788 806.88c-21.062 0-38.187-17.139-38.187-38.201s17.139-38.201 38.187-38.201c21.077 0 38.201 17.139 38.201 38.201s-17.139 38.201-38.201 38.201zM794.404 768.693c0 11.782 9.602 21.384 21.384 21.384 2.81 0 5.459-0.615 7.918-1.595l-27.707-27.707c-0.981 2.459-1.595 5.108-1.595 7.918zM815.803 747.28c-2.796 0-5.445 0.615-7.904 1.595l27.707 27.707c0.981-2.444 1.595-5.094 1.595-7.904 0-11.797-9.602-21.399-21.399-21.399zM514.7 258.435c124.762 0 226.237 101.49 226.237 226.237s-101.475 226.266-226.237 226.266-226.251-101.504-226.251-226.266c0-124.762 101.49-226.237 226.251-226.237zM506.372 275.662c-49.852 1.991-95.196 21.369-130.206 52.369l43.617 45.52c23.945-20.945 54.14-33.474 86.59-35.537v-62.352zM523.043 275.662v62.132c33.327 1.654 63.727 14.402 87.541 34.762l42.665-44.524c-35.011-31-80.354-50.394-130.206-52.369zM665.325 339.507l-42.739 44.612c22.789 24.458 37.235 56.658 39.006 92.21h60.566c0.556 0 1.039 0.22 1.566 0.322-2.020-53.16-23.814-101.27-58.4-137.144zM723.739 492.707c-0.527 0.102-1.010 0.322-1.566 0.322h-60.888c-2.254 34.469-16.598 66.538-39.811 91.068l43.866 45.768c34.571-35.889 56.365-83.999 58.4-137.159zM506.372 693.71v-64.313c0-0.015 0-0.015 0-0.015-32.522-2.093-62.161-14.754-85.492-34.718l-44.729 46.676c35.011 31 80.369 50.394 130.221 52.369zM364.076 629.851l44.817-46.764c-22.321-23.975-36.65-55.355-38.875-90.073h-62.776c-0.556 0-1.039-0.22-1.566-0.322 2.020 53.174 23.814 101.285 58.4 137.159zM307.242 476.343h62.864c0.615-12.47 2.444-24.78 6.177-36.621 1.127-3.571 4.42-5.869 8.006-5.869 0.834 0 1.683 0.132 2.532 0.395 4.42 1.39 6.879 6.103 5.489 10.538-3.937 12.5-5.942 25.585-5.942 38.845 0 71.353 58.063 129.401 129.401 129.401 4.64 0 8.401 3.747 8.401 8.401 0 1.859-0.717 3.483-1.742 4.874 0.381 0.966 0.629 1.991 0.629 3.088v64.313c49.852-1.991 95.196-21.369 130.206-52.384l-43.836-45.739c-9.689 8.153-20.389 15.251-32.156 20.711-4.201 1.991-9.221 0.132-11.168-4.069-1.947-4.215-0.132-9.206 4.069-11.168 45.168-20.974 74.383-66.464 74.895-116.141-0.015-0.102-0.059-0.161-0.059-0.263 0-0.205 0.102-0.366 0.117-0.556 0-0.161 0.044-0.322 0.044-0.498 0-71.353-58.063-129.401-129.401-129.401-44.612 0-85.521 22.526-109.408 60.288-2.503 3.937-7.699 5.050-11.607 2.605-3.923-2.503-5.079-7.684-2.605-11.607 4.654-7.348 10.055-13.978 15.778-20.257l-43.822-45.739c-34.586 35.874-56.38 83.984-58.414 137.144 0.512-0.088 0.995-0.293 1.551-0.293z" />
<glyph unicode="&#xe98c;" glyph-name="star2" d="M512 224l288-192-128 320 288 192h-320l-128 320-128-320h-320l288-192-128-320 288 192zM512 263.902l-217.6-145.502 102.4 246.399-230.4 147.2h239.998l105.602 272 105.602-272h240l-230.402-147.2 102.402-246.399-217.602 145.502z" />
<glyph unicode="&#xe98f;" glyph-name="icomoon-lock" d="M592 512h-16v192c0 105.87-86.13 192-192 192h-128c-105.87 0-192-86.13-192-192v-192h-16c-26.4 0-48-21.6-48-48v-480c0-26.4 21.6-48 48-48h544c26.4 0 48 21.6 48 48v480c0 26.4-21.6 48-48 48zM192 704c0 35.29 28.71 64 64 64h128c35.29 0 64-28.71 64-64v-192h-256v192z" />
<glyph unicode="&#xe9a6;" glyph-name="icomoon-dashboard" d="M512 896c282.77 0 512-229.23 512-512 0-192.792-106.576-360.666-264.008-448h-495.984c-157.432 87.334-264.008 255.208-264.008 448 0 282.77 229.23 512 512 512zM801.914 94.086c77.438 77.44 120.086 180.398 120.086 289.914h-90v64h85.038c-7.014 44.998-21.39 88.146-42.564 128h-106.474v64h64.284c-9.438 11.762-19.552 23.096-30.37 33.914-46.222 46.22-101.54 80.038-161.914 99.798v-69.712h-64v85.040c-20.982 3.268-42.36 4.96-64 4.96s-43.018-1.69-64-4.96v-85.040h-64v69.712c-60.372-19.76-115.692-53.576-161.914-99.798-10.818-10.818-20.932-22.152-30.37-33.914h64.284v-64h-106.476c-21.174-39.854-35.552-83.002-42.564-128h85.040v-64h-90c0-109.516 42.648-212.474 120.086-289.914 10.71-10.71 21.924-20.728 33.56-30.086h192.354l36.572 512h54.856l36.572-512h192.354c11.636 9.358 22.852 19.378 33.56 30.086z" />
<glyph unicode="&#xe9ac;" glyph-name="icomoon-bin" d="M128 640v-640c0-35.2 28.8-64 64-64h576c35.2 0 64 28.8 64 64v640h-704zM320 64h-64v448h64v-448zM448 64h-64v448h64v-448zM576 64h-64v448h64v-448zM704 64h-64v448h64v-448zM848 832h-208v80c0 26.4-21.6 48-48 48h-224c-26.4 0-48-21.6-48-48v-80h-208c-26.4 0-48-21.6-48-48v-80h832v80c0 26.4-21.6 48-48 48zM576 832h-192v63.198h192v-63.198z" />
<glyph unicode="&#xf00d;" glyph-name="close, remove, times" horiz-adv-x="805" d="M741.714 195.428q0-22.857-16-38.857l-77.714-77.714q-16-16-38.857-16t-38.857 16l-168 168-168-168q-16-16-38.857-16t-38.857 16l-77.714 77.714q-16 16-16 38.857t16 38.857l168 168-168 168q-16 16-16 38.857t16 38.857l77.714 77.714q16 16 38.857 16t38.857-16l168-168 168 168q16 16 38.857 16t38.857-16l77.714-77.714q16-16 16-38.857t-16-38.857l-168-168 168-168q16-16 16-38.857z" />
<glyph unicode="&#xf030;" glyph-name="camera" horiz-adv-x="1097" d="M548.571 566.857q68 0 116.286-48.286t48.286-116.286-48.286-116.286-116.286-48.286-116.286 48.286-48.286 116.286 48.286 116.286 116.286 48.286zM950.857 804.571q60.571 0 103.429-42.857t42.857-103.429v-512q0-60.571-42.857-103.429t-103.429-42.857h-804.571q-60.571 0-103.429 42.857t-42.857 103.429v512q0 60.571 42.857 103.429t103.429 42.857h128l29.143 77.714q10.857 28 39.714 48.286t59.143 20.286h292.571q30.286 0 59.143-20.286t39.714-48.286l29.143-77.714h128zM548.571 146.286q105.714 0 180.857 75.143t75.143 180.857-75.143 180.857-180.857 75.143-180.857-75.143-75.143-180.857 75.143-180.857 180.857-75.143z" />
<glyph unicode="&#xf065;" glyph-name="expand" horiz-adv-x="878" d="M431.429 347.428q0-7.429-5.714-13.143l-189.714-189.714 82.286-82.286q10.857-10.857 10.857-25.714t-10.857-25.714-25.714-10.857h-256q-14.857 0-25.714 10.857t-10.857 25.714v256q0 14.857 10.857 25.714t25.714 10.857 25.714-10.857l82.286-82.286 189.714 189.714q5.714 5.714 13.143 5.714t13.143-5.714l65.143-65.143q5.714-5.714 5.714-13.143zM877.714 841.143v-256q0-14.857-10.857-25.714t-25.714-10.857-25.714 10.857l-82.286 82.286-189.714-189.714q-5.714-5.714-13.143-5.714t-13.143 5.714l-65.143 65.143q-5.714 5.714-5.714 13.143t5.714 13.143l189.714 189.714-82.286 82.286q-10.857 10.857-10.857 25.714t10.857 25.714 25.714 10.857h256q14.857 0 25.714-10.857t10.857-25.714z" />
<glyph unicode="&#xf066;" glyph-name="compress" horiz-adv-x="878" d="M438.857 402.286v-256q0-14.857-10.857-25.714t-25.714-10.857-25.714 10.857l-82.286 82.286-189.714-189.714q-5.714-5.714-13.143-5.714t-13.143 5.714l-65.143 65.143q-5.714 5.714-5.714 13.143t5.714 13.143l189.714 189.714-82.286 82.286q-10.857 10.857-10.857 25.714t10.857 25.714 25.714 10.857h256q14.857 0 25.714-10.857t10.857-25.714zM870.286 786.286q0-7.429-5.714-13.143l-189.714-189.714 82.286-82.286q10.857-10.857 10.857-25.714t-10.857-25.714-25.714-10.857h-256q-14.857 0-25.714 10.857t-10.857 25.714v256q0 14.857 10.857 25.714t25.714 10.857 25.714-10.857l82.286-82.286 189.714 189.714q5.714 5.714 13.143 5.714t13.143-5.714l65.143-65.143q5.714-5.714 5.714-13.143z" />
<glyph unicode="&#xf081;" glyph-name="twitter-square" horiz-adv-x="878" d="M731.429 602.286q-32-14.286-69.143-19.429 38.857 22.857 53.143 66.857-37.143-21.714-76.571-29.143-34.857 37.714-87.429 37.714-49.714 0-84.857-35.143t-35.143-84.857q0-16.571 2.857-27.429-73.714 4-138.286 37.143t-109.714 88.571q-16.571-28.571-16.571-60.571 0-65.143 52-100-26.857 0.571-57.143 14.857v-1.143q0-42.857 28.571-76.286t70.286-41.429q-16.571-4.571-29.143-4.571-7.429 0-22.286 2.286 12-36 42.571-59.429t69.429-24q-66.286-51.429-149.143-51.429-14.857 0-28.571 1.714 84.571-53.714 184-53.714 64 0 120 20.286t96 54.286 68.857 78.286 42.857 92.571 14 96.286q0 10.286-0.571 15.429 36 25.714 60 62.286zM877.714 713.143v-548.571q0-68-48.286-116.286t-116.286-48.286h-548.571q-68 0-116.286 48.286t-48.286 116.286v548.571q0 68 48.286 116.286t116.286 48.286h548.571q68 0 116.286-48.286t48.286-116.286z" />
<glyph unicode="&#xf082;" glyph-name="facebook-square" horiz-adv-x="878" d="M713.143 877.714q68 0 116.286-48.286t48.286-116.286v-548.571q0-68-48.286-116.286t-116.286-48.286h-107.429v340h113.714l17.143 132.571h-130.857v84.571q0 32 13.429 48t52.286 16l69.714 0.571v118.286q-36 5.143-101.714 5.143-77.714 0-124.286-45.714t-46.571-129.143v-97.714h-114.286v-132.571h114.286v-340h-304q-68 0-116.286 48.286t-48.286 116.286v548.571q0 68 48.286 116.286t116.286 48.286h548.571z" />
<glyph unicode="&#xf08c;" glyph-name="linkedin-square" horiz-adv-x="878" d="M135.429 142.857h132v396.571h-132v-396.571zM276 661.714q-0.571 29.714-20.571 49.143t-53.143 19.429-54-19.429-20.857-49.143q0-29.143 20.286-48.857t52.857-19.714h0.571q33.714 0 54.286 19.714t20.571 48.857zM610.286 142.857h132v227.429q0 88-41.714 133.143t-110.286 45.143q-77.714 0-119.429-66.857h1.143v57.714h-132q1.714-37.714 0-396.571h132v221.714q0 21.714 4 32 8.571 20 25.714 34t42.286 14q66.286 0 66.286-89.714v-212zM877.714 713.143v-548.571q0-68-48.286-116.286t-116.286-48.286h-548.571q-68 0-116.286 48.286t-48.286 116.286v548.571q0 68 48.286 116.286t116.286 48.286h548.571q68 0 116.286-48.286t48.286-116.286z" />
<glyph unicode="&#xf092;" glyph-name="github-square" horiz-adv-x="878" d="M296.571 265.143q2.286 3.429-1.714 7.429-5.143 4-8 1.143-2.286-3.429 1.714-7.429 5.143-4 8-1.143zM280.571 288.571q-2.857 4-6.857 2.286-3.429-2.286 0-6.857 4-4.571 6.857-2.857 3.429 2.286 0 7.429zM257.143 311.428q1.143 2.286-2.857 4.571-4 1.143-4.571-1.143-1.714-2.857 2.286-4.571 4.571-1.143 5.143 1.143zM269.143 298.286q1.143 0.571 0.857 2.571t-2 3.143q-3.429 4-5.714 1.714t0.571-6.286q3.429-3.429 6.286-1.143zM318.286 255.428q1.143 4-5.143 6.286-5.143 1.714-7.429-2.286-1.143-4 5.143-6.286 5.143-1.714 7.429 2.286zM342.286 253.714q0 4.571-6.857 4.571-5.714 0-5.714-4.571t6.286-4.571 6.286 4.571zM364.571 257.714q-1.143 4-7.429 2.857t-5.143-5.143q1.143-4.571 6.857-3.429t5.714 5.714zM731.429 438.857q0 121.143-85.714 206.857t-206.857 85.714-206.857-85.714-85.714-206.857q0-95.429 56-171.714t144-106q10.286-1.714 15.143 2.857t4.857 11.429q0 29.714-0.571 54.286-3.429-0.571-8.857-1.429t-20.286-1.143-27.429 2.286-24.857 11.429-16.857 23.714q-13.143 33.714-32.571 42.286-1.143 0.571-2.571 2l-4.571 4.571t-4 5.429 2.286 4.286 11.143 2q3.429 0 8.571-1.143t17.143-8.857 18.857-20.286q9.143-16 21.429-24t24.857-8 21.714 2 17.143 5.429q4 26.857 18.857 39.429-28 3.429-49.143 10.571t-41.714 22.286-31.714 43.429-11.143 68.286q0 45.143 30.286 78.286-13.714 35.429 2.857 77.714 10.857 3.429 31.143-4.286t34.571-16.857l14.857-9.143q33.143 9.714 73.143 9.714t73.143-9.714q6.286 4 16.286 10.286t31.714 14.857 32.571 5.143q16.571-42.286 2.857-77.714 30.286-33.143 30.286-78.286 0-32.571-8-57.429t-20.286-40-30.571-25.429-35.714-14.857-39.143-6.857q20-17.714 20-54.286 0-22.857-0.286-50.857t-0.286-29.143q0-6.857 4.857-11.429t15.143-2.857q88 29.714 144 106t56 171.714zM877.714 713.143v-548.571q0-68-48.286-116.286t-116.286-48.286h-548.571q-68 0-116.286 48.286t-48.286 116.286v548.571q0 68 48.286 116.286t116.286 48.286h548.571q68 0 116.286-48.286t48.286-116.286z" />
<glyph unicode="&#xf099;" glyph-name="twitter" horiz-adv-x="951" d="M925.714 717.714q-38.286-56-92.571-95.429 0.571-8 0.571-24 0-74.286-21.714-148.286t-66-142-105.429-120.286-147.429-83.429-184.571-31.143q-154.857 0-283.429 82.857 20-2.286 44.571-2.286 128.571 0 229.143 78.857-60 1.143-107.429 36.857t-65.143 91.143q18.857-2.857 34.857-2.857 24.571 0 48.571 6.286-64 13.143-106 63.714t-42 117.429v2.286q38.857-21.714 83.429-23.429-37.714 25.143-60 65.714t-22.286 88q0 50.286 25.143 93.143 69.143-85.143 168.286-136.286t212.286-56.857q-4.571 21.714-4.571 42.286 0 76.571 54 130.571t130.571 54q80 0 134.857-58.286 62.286 12 117.143 44.571-21.143-65.714-81.143-101.714 53.143 5.714 106.286 28.571z" />
<glyph unicode="&#xf09a;" glyph-name="facebook" horiz-adv-x="602" d="M548 944v-150.857h-89.714q-49.143 0-66.286-20.571t-17.143-61.714v-108h167.429l-22.286-169.143h-145.143v-433.714h-174.857v433.714h-145.714v169.143h145.714v124.571q0 106.286 59.429 164.857t158.286 58.571q84 0 130.286-6.857z" />
</font>
</defs>
</svg>
