<?xml version="1.0" encoding="utf-8"?>
<!-- Generator: Adobe Illustrator 19.0.0, SVG Export Plug-In . SVG Version: 6.00 Build 0)  -->
<svg version="1.1" id="Layer_1" xmlns="http://www.w3.org/2000/svg" xmlns:xlink="http://www.w3.org/1999/xlink" x="0px" y="0px"
	 viewBox="386.7 166.3 1029.3 88.6" style="enable-background:new 386.7 166.3 1029.3 88.6;" xml:space="preserve">
<style type="text/css">
	.st0{fill:#FFFFFF;}
</style>
<path id="x" class="st0" d="M1416,170.5c0-0.9-0.3-1.8-1-2.7s-1.4-1.4-2.2-1.4h-27.7c-0.8,0-2,0.4-3.6,1.2s-2.6,1.5-3.1,2.2
	l-31,25.2l-31.2-25.4c-0.4-0.7-1.5-1.4-3.1-2.2s-2.8-1.2-3.6-1.2h-27.7c-0.8,0-1.5,0.5-2.2,1.4c-0.7,0.9-1,1.9-1,2.7l49.4,40.3
	l-49.4,40.1c0.1,0.1,0.2,0.4,0.2,1v0.7c0,0.4,0.1,0.8,0.3,1l1.5,1.5h29.5c2.2-0.7,3.9-1.5,5-2.7l32.2-26l32.2,26
	c1.1,1.1,2.8,2,5,2.7h29.5l1.5-1.5c0.1-0.1,0.2-0.4,0.2-1v-0.7c0,0,0-0.1,0.1-0.2c0.1-0.2,0.1-0.4,0.2-0.7l-49.4-40.1L1416,170.5z"
	/>
<path id="o_1_" class="st0" d="M1253,170c-2.6-2.8-5-3.5-7.9-3.7h-104.3c-5.4,0-9-0.6-12.8,3.9c-3.3,3.8-2.2,13-2.2,18.6v41.7
	c0,5.6-1,15,1.4,19.3c3.1,5.5,8.9,5.1,17.4,5.1h91.5c21.1,0,19.3-3.2,19.3-24.5c0-13.9,0-27.8,0-41.7
	C1255.4,183.2,1256.7,174,1253,170 M1233.1,229.3c0,4.6-4.1,8.4-9.1,8.4h-66.7c-5,0-9.1-3.8-9.1-8.4v-37.2c0-4.6,4.1-8.4,9.1-8.4
	h66.7c5,0,9.1,3.8,9.1,8.4V229.3z"/>
<path id="b" class="st0" d="M1099.1,169.8c-0.9-1-2-1.8-3.2-2.5c-1.2-0.7-2.2-1-3.2-1H967.4c-0.7,0-1.4,0.3-2.1,1
	c-0.7,0.7-1.1,1.4-1.1,2.2v82.2c0,0.9,0.4,1.7,1.1,2.3c0.7,0.7,1.4,1,2.1,1h125.3c1,0,2.1-0.3,3.2-1c1.2-0.7,2.2-1.5,3.2-2.5
	c0.9-1,1.7-2.1,2.4-3.2c0.7-1.2,1-2.2,1-3.2v-25.8c0-0.3-0.2-0.9-0.7-1.7c-0.4-0.8-1-1.6-1.6-2.6c-0.6-0.9-1.2-1.9-1.9-2.8
	c-0.7-0.9-1.2-1.7-1.7-2.2l0.5-0.5c1-1.2,2.1-2.7,3.4-4.3c1.3-1.7,1.9-2.9,1.9-3.8v-25c0-1-0.3-2.1-1-3.2
	C1100.8,171.9,1100,170.8,1099.1,169.8 M1073,235c-0.1,0.8-0.4,1.4-0.9,1.7c-0.5,0.4-1,0.6-1.6,0.7h-76.6v-18.6h76.3
	c0.6,0,1.2,0.2,1.8,0.7c0.7,0.5,1,1.2,1,2.2V235z M1073,199.9c0,0.9-0.3,1.5-0.8,1.9c-0.6,0.4-1.1,0.6-1.7,0.7h-76.6v-18.6h76.6
	c1.5,0.2,2.4,1,2.5,2.3V199.9z"/>
<path id="e" class="st0" d="M941.7,183.9c0.3,0,0.7-0.4,1-1.2c0.3-0.8,0.6-1.7,0.7-2.7c0.2-1,0.3-2.1,0.4-3.1c0.1-1,0.2-1.7,0.2-2.2
	c0-0.3-0.1-0.9-0.2-1.8c-0.1-0.9-0.2-1.8-0.4-2.8s-0.4-1.9-0.7-2.7c-0.3-0.8-0.7-1.2-1-1.2H811.4c-0.9,0-1.7,0.3-2.3,0.9
	c-0.7,0.6-1,1.4-1,2.2v82.2c0,0.9,0.4,1.7,1.1,2.3c0.7,0.7,1.4,1,2.1,1h130.5c0.3,0,0.7-0.4,1-1.2s0.6-1.7,0.7-2.7
	c0.2-1,0.3-2,0.4-2.9c0.1-0.9,0.2-1.6,0.2-1.9c0-0.4-0.1-1.2-0.2-2.2c-0.1-1-0.2-2-0.4-3s-0.4-1.9-0.7-2.7s-0.7-1.2-1-1.2h-104
	v-18.2h88.7c0.3,0,0.6-0.3,0.9-1c0.3-0.7,0.5-1.4,0.7-2.3c0.2-0.9,0.3-1.8,0.4-2.8c0.1-1,0.2-1.8,0.2-2.3c0-0.7-0.1-1.5-0.2-2.4
	c-0.2-0.9-0.4-1.8-0.6-2.6c-0.2-0.8-0.5-1.4-0.7-2c-0.3-0.6-0.5-0.8-0.6-0.8h-88.7v-18.7H941.7L941.7,183.9z"/>
<path id="n" class="st0" d="M784.4,169.8c-1-1-2.1-1.8-3.2-2.5c-1.2-0.7-2.2-1-3.2-1H654.2c-0.7,0-1.4,0.3-2.1,1s-1.1,1.4-1.1,2.2
	v82.2c0,0.9,0.4,1.7,1.1,2.3c0.7,0.7,1.4,1,2.1,1h23.4c0.8,0,1.5-0.3,2.2-1s1-1.4,1-2.3v-67.8h74.6c0.7,0,1.3,0.2,1.9,0.6
	c0.6,0.4,0.9,1.1,0.9,2.1v65.2c0,0.9,0.4,1.7,1.1,2.3c0.7,0.7,1.4,1,2.1,1h23.4c0.8,0,1.5-0.3,2.2-1s1-1.4,1-2.3v-75.5
	c0-1-0.3-2.1-1-3.2C786.2,171.9,785.4,170.8,784.4,169.8"/>
<path id="i" class="st0" d="M627.7,166.4h-23.4c-0.7,0-1.4,0.3-2.1,1c-0.7,0.7-1.1,1.4-1.1,2.2v82.2c0,0.9,0.4,1.7,1.1,2.3
	s1.4,1,2.1,1h23.4c0.8,0,1.5-0.3,2.2-1c0.7-0.7,1-1.4,1-2.3v-82.3c0-0.9-0.3-1.6-1-2.2C629.2,166.7,628.5,166.4,627.7,166.4"/>
<path id="m" class="st0" d="M577.5,169.8c-1-1-2.1-1.8-3.2-2.5c-1.2-0.7-2.2-1-3.2-1H396.6c-1,0-2.1,0.3-3.2,1
	c-1.2,0.7-2.2,1.5-3.2,2.5s-1.8,2.1-2.5,3.2c-0.7,1.2-1,2.2-1,3.2v75.4c0,0.9,0.4,1.7,1.1,2.3c0.7,0.7,1.4,1,2.1,1h23.4
	c0.8,0,1.5-0.3,2.2-1c0.7-0.7,1-1.4,1-2.3v-65c0-1,0.3-1.7,0.9-2.1c0.6-0.4,1.2-0.6,1.9-0.6h49.9v67.8c0,0.9,0.3,1.7,1,2.3
	c0.7,0.7,1.4,1,2.2,1h23.4c0.7,0,1.3-0.3,2-1c0.7-0.7,1-1.4,1-2.3v-67.8h49.9c0.7,0,1.3,0.2,1.9,0.6c0.6,0.4,0.9,1.1,0.9,2.1v65.2
	c0,0.9,0.3,1.7,1,2.3c0.7,0.7,1.4,1,2.2,1h23.4c0.8,0,1.5-0.3,2.2-1s1-1.4,1-2.3v-75.5c0-1-0.3-2.1-1-3.2
	C579.3,171.9,578.5,170.8,577.5,169.8"/>
</svg>
